<?xml version="1.0" standalone="no"?>
<!DOCTYPE svg PUBLIC "-//W3C//DTD SVG 1.1//EN" "http://www.w3.org/Graphics/SVG/1.1/DTD/svg11.dtd" >
<!--
2013-9-30: Created.
-->
<svg>
<metadata>
Created by iconfont
</metadata>
<defs>

<font id="iconFont" horiz-adv-x="1024" >
  <font-face
    font-family="iconFont"
    font-weight="500"
    font-stretch="normal"
    units-per-em="1024"
    ascent="896"
    descent="-128"
  />
    <missing-glyph />
    
    <glyph glyph-name="x" unicode="x" horiz-adv-x="1001"
d="M281 543q-27 -1 -53 -1h-83q-18 0 -36.5 -6t-32.5 -18.5t-23 -32t-9 -45.5v-76h912v41q0 16 -0.5 30t-0.5 18q0 13 -5 29t-17 29.5t-31.5 22.5t-49.5 9h-133v-97h-438v97zM955 310v-52q0 -23 0.5 -52t0.5 -58t-10.5 -47.5t-26 -30t-33 -16t-31.5 -4.5q-14 -1 -29.5 -0.5
t-29.5 0.5h-32l-45 128h-439l-44 -128h-29h-34q-20 0 -45 1q-25 0 -41 9.5t-25.5 23t-13.5 29.5t-4 30v167h911zM163 247q-12 0 -21 -8.5t-9 -21.5t9 -21.5t21 -8.5q13 0 22 8.5t9 21.5t-9 21.5t-22 8.5zM316 123q-8 -26 -14 -48q-5 -19 -10.5 -37t-7.5 -25t-3 -15t1 -14.5
t9.5 -10.5t21.5 -4h37h67h81h80h64h36q23 0 34 12t2 38q-5 13 -9.5 30.5t-9.5 34.5q-5 19 -11 39h-368zM336 498v228q0 11 2.5 23t10 21.5t20.5 15.5t34 6h188q31 0 51.5 -14.5t20.5 -52.5v-227h-327z" />
    

    
    <glyph glyph-name="arrow-back" unicode="&#58928;" d="M442.491056 424.809451l275.108999 285.911752c6.858486 6.852058 6.67633 18.150382-0.397059 25.222451l-48.694023 48.691979c-7.080553 7.081279-18.370141 7.257288-25.228627 0.402159L353.836272 484.233865l-46.98503-46.981011c-7.14707-7.142677-7.329227-18.551518-0.402176-25.474185l336.03102-341.870228c6.921934-6.925736 18.3333-6.741541 25.48037 0.402159l49.18523 49.183166c7.14707 7.142677 7.331273 18.560728 0.404223 25.477254L442.491056 424.809451z"  horiz-adv-x="1024" />

    
    <glyph glyph-name="no-content" unicode="&#58908;" d="M923.52 184.384v229.568l100.48 38.848-70.656 105.408 62.528-10.368 0.512 3.008 4.864 7.232-116.8 78.4-1.536-2.24 0.96 2.688-351.872 131.008-0.96-2.56-0.896 2.624-413.376-137.024-0.256 0.448-1.728-1.216-0.32 0.064-0.448-0.64-134.016-94.784 5.312-7.488 1.28-3.2 73.088 30.080-53.248-73.856 105.664-59.264 0.128-234.88h2.88l-1.408-2.56 329.408-183.68 11.584 0.064v-0.064l0.192 0.064h0.192v0.064l448.448 184.256zM990.592 564.16l-46.4 7.68-28.608 42.688 75.008-50.368zM557.376 753.152l329.152-122.56-329.152-123.328v245.888zM896.448 621.504l109.248-162.944-454.72-175.744-75.136 181.056 420.608 157.632zM48 554.176l64.448 45.568-19.52-27.136-44.928-18.432zM44.032 484.224l56.64 78.592 1.408 0.576-0.384 0.896 36.672 50.944 321.6-151.168-56.832-181.312-359.104 201.472zM144.192 191.552l-0.128 222.784 266.048-149.248 51.52 164.352 1.344-415.68-318.784 177.792zM150.336 622.912l395.072 130.944v-251.072l-77.568-29.12-317.504 149.248zM911.552 192.32l-436.544-179.2-1.344 424.768 70.72-170.496 367.168 141.888v-216.96z"  horiz-adv-x="1024" />

    
    <glyph glyph-name="arrow-back-md" unicode="&#59018;" d="M853.333333 426.666667L332.8 426.666667 571.733333 665.6 512 725.333333 170.666667 384 512 42.66666699999996 571.733333 102.39999999999998 332.8 341.33333300000004 853.333333 341.33333300000004 853.333333 426.666667 853.333333 426.666667Z"  horiz-adv-x="1024" />

    
    <glyph glyph-name="close" unicode="&#58910;" d="M511.999488 830.709995C265.305947 830.709995 65.290517 630.711961 65.290517 384s200.01543-446.708971 446.708971-446.708971S958.70846 137.28803900000003 958.70846 384 758.69303 830.709995 511.999488 830.709995zM728.047056 239.22263899999996l-52.67571-52.638871L530.612405 331.34271 385.853463 186.58376799999996l-52.676733 52.638871 144.776338 144.776338L333.177753 528.776338l52.676733 52.639894 144.758941-144.758941 144.758941 144.758941 52.67571-52.639894L583.269695 384 728.047056 239.22263899999996z"  horiz-adv-x="1024" />

    
    <glyph glyph-name="arrow-left-1" unicode="&#58884;" d="M742.10626-24.847665000000006c0-40.334637-23.817452-49.984415-52.910047-21.467941L303.725978 332.169541c-29.112038 28.515451-29.112038 75.17412 0 103.690594L689.196213 814.316629c29.092595 28.515451 52.910047 18.865673 52.910047-21.467941L742.10626-24.847665000000006z"  horiz-adv-x="1024" />

    
    <glyph glyph-name="arrow-right-2" unicode="&#58885;" d="M757.695307 384.008186L713.023898 428.679595 713.018781 428.674479 310.965869 830.709995 266.302647 786.042679 668.343279 384 266.302647-18.03039899999999 310.965869-62.70897100000002 713.014688 339.329615 713.023898 339.32040500000005 757.695307 384 757.692237 384.004093Z"  horiz-adv-x="1024" />

    
    <glyph glyph-name="arrow-right-1" unicode="&#58881;" d="M281.894 792.848c0 40.335 23.817 49.984 52.91 21.468l385.47-378.485c29.112-28.515 29.112-75.174 0-103.692l-385.47-378.456c-29.093-28.515-52.91-18.866-52.91 21.468v817.695z"  horiz-adv-x="1024" />

    
    <glyph glyph-name="arrow-down" unicode="&#58882;" d="M487.212 830.708v-798.677l-378.463 378.462-35.048-35.048 438.453-438.154 438.144 438.155-35.048 35.048-378.464-378.475v798.693z"  horiz-adv-x="1024" />

    
    <glyph glyph-name="arrow-up" unicode="&#58883;" d="M536.788-62.708v798.677l378.463-378.462 35.048 35.048-438.453 438.154-438.144-438.155 35.048-35.048 378.464 378.475v-798.693z"  horiz-adv-x="1024" />

    
    <glyph glyph-name="arrow-down-2" unicode="&#58886;" d="M512.008 138.30499999999995l446.702 446.729-44.667 44.663-402.043-402.041-402.03 402.041-44.679-44.663 446.713-446.726z"  horiz-adv-x="1024" />

    
    <glyph glyph-name="arrow-up-2" unicode="&#58887;" d="M511.992 629.6949999999999l-446.702-446.729 44.667-44.663 402.043 402.041 402.03-402.041 44.679 44.663-446.713 446.726z"  horiz-adv-x="1024" />

    
    <glyph glyph-name="down" unicode="&#58894;" d="M511.999488-63.294238c-247.02227 0-447.302936 200.245874-447.302936 447.302936 0 247.021247 200.281689 447.28554 447.302936 447.28554 247.058086 0 447.302936-200.264293 447.302936-447.28554C959.303448 136.950612 759.057574-63.294238 511.999488-63.294238zM785.266519 411.601154c-0.546446 0.509607-53.364448-0.65594-52.746371 0L548.911203 227.991186 548.911203 683.521512c0-1.456166-74.551001 0.873904-74.551001-1.165547l0-454.291101L291.478829 410.945214c-0.546446 0.509607-53.147507 0.619101-52.746371 0 1.81944-2.838654-1.675154-51.034378 0-52.709532l246.584294-246.584294c14.487984-14.487984 38.222571-14.487984 52.710555 0l247.239211 247.239211C784.611602 358.236706 785.776126 411.091547 785.266519 411.601154z"  horiz-adv-x="1024" />

    
    <glyph glyph-name="up" unicode="&#58895;" d="M511.999488 831.294238c-247.039666 0-447.302936-200.264293-447.302936-447.28554 0-247.058086 200.26327-447.302936 447.302936-447.302936 247.039666 0 447.303959 200.245874 447.303959 447.302936C959.303448 631.029945 759.039154 831.294238 511.999488 831.294238zM785.248099 356.343587c-0.509607-0.509607-53.364448 0.65594-52.709532 0l-183.645784 183.682623 0-455.529303c0 1.42035-74.551001-0.910743-74.551001 1.165547L474.341783 539.91774l-182.881373-182.882397c-0.509607-0.545423-53.109645-0.618078-52.709532 0 1.802044 2.876517-1.69255 51.035401 0 52.709532l246.565875 246.548479c14.487984 14.487984 38.203128 14.487984 52.709532 0l247.221815-247.202372C784.611602 409.708036 785.776126 356.890033 785.248099 356.343587z"  horiz-adv-x="1024" />

    
    <glyph glyph-name="list" unicode="&#58896;" d="M846.246419 562.75591l-670.954916 0c-61.65733 0-111.82599-50.16866-111.82599-111.82599l0-424.938557c0-61.65733 50.16866-111.82599 111.82599-111.82599l670.954916 0c61.65733 0 111.82599 50.16866 111.82599 111.82599l0 424.938557C958.072409 512.58725 907.903749 562.75591 846.246419 562.75591zM913.342627 25.991364c0-36.998696-30.096489-67.095185-67.095185-67.095185l-670.954916 0c-36.998696 0-67.095185 30.096489-67.095185 67.095185l0 424.938557c0 36.998696 30.097512 67.095185 67.095185 67.095185l670.954916 0c36.998696 0 67.095185-30.096489 67.095185-67.095185L913.342627 25.991364zM868.611822 719.311682l-715.685721 0 0-44.729782 715.685721 0L868.611822 719.311682zM801.516637 853.503074l-581.494328 0 0-44.729782 581.494328 0L801.516637 853.503074z"  horiz-adv-x="1024" />

    
    <glyph glyph-name="hide" unicode="&#58897;" d="M337.27899 274.115736l85.561787 85.56588c-2.601247 8.865934-4.006248 18.253754-4.006248 27.976196 0 54.117602 43.347294 98.035902 96.818166 98.035902 10.023294 0 19.691501-1.543147 28.784609-4.408408l66.896663 66.899733c-30.252031 12.13847-62.391041 19.093889-95.709924 19.093889-116.817682 0-219.183197-85.391918-276.307276-180.535953C264.222018 345.246844 297.727143 305.620295 337.27899 274.115736zM511.999488 832.159956c-247.116414 0-448.165584-201.038937-448.165584-448.155351 0-247.107204 201.048146-448.165584 448.165584-448.165584s448.165584 201.058379 448.165584 448.165584C960.165072 631.121019 759.116926 832.159956 511.999488 832.159956zM511.999488-25.19037c-225.634126 0-409.193952 183.55164-409.193952 409.194975 0 225.633102 183.559826 409.184742 409.193952 409.184742s409.193952-183.55164 409.193952-409.184742C921.19344 158.361269 737.633614-25.19037 511.999488-25.19037zM681.924769 508.545187l-78.810006-78.810006c5.99658-12.752455 9.357121-27.019404 9.357121-42.07737 0-54.156488-43.347294-98.036925-96.818166-98.036925-15.306629 0-29.780287 3.602041-42.648375 10.003851l-67.912807-67.911784c34.495686-16.079226 71.714393-25.514119 110.532529-25.514119 116.817682 0 219.172964 85.362242 276.297043 180.54414C764.529198 432.370197 726.728229 475.746144 681.924769 508.545187zM695.151015 601.208726 281.799366 187.857077l27.56278-27.554594 413.342439 413.333229L695.151015 601.208726z"  horiz-adv-x="1024" />

    
    <glyph glyph-name="leave" unicode="&#58898;" d="M511.999488 831.298331c-199.185727 0-368.385483-130.878947-426.117407-311.15805l41.039736 0c56.185706 158.466286 207.581963 272.263166 385.07767 272.263166 225.209453 0 408.407028-183.198599 408.407028-408.397819 0-225.209453-183.197575-408.408052-408.407028-408.408052S103.59246 158.795152 103.59246 384.004605l556.242176 0-167.434551-167.434551 27.215879-27.235322 206.482931 206.482931-6.55019 6.554283 1.080612 1.080612-208.628806 208.639039-27.501382-27.520824L646.177578 422.900512l-579.799732 0c-1.109265-12.819993-1.681294-25.792459-1.681294-38.895907 0-246.63239 200.671569-447.303959 447.303959-447.303959 246.63239 0 447.303959 200.672593 447.303959 447.303959C959.303448 630.646205 758.631878 831.298331 511.999488 831.298331zM672.454061 396.62403l-4.870942-4.870942 0 9.741885L672.454061 396.62403z"  horiz-adv-x="1024" />

    
    <glyph glyph-name="show" unicode="&#58909;" d="M503.233-72.455c-246.576 0-447.185 200.618-447.185 447.185 0 246.586 200.609 447.185 447.185 447.185 246.576 0 447.185-200.599 447.185-447.185 0-246.567-200.609-447.185-447.185-447.185zM503.233 783.029c-225.14 0-408.299-183.15-408.299-408.299 0-225.13 183.16-408.299 408.299-408.299 225.141 0 408.299 183.169 408.299 408.299 0 225.15-183.159 408.299-408.299 408.299zM506.85 557.614c-116.562 0-218.703-85.195-275.702-180.15 56.999-94.955 159.14-180.15 275.702-180.15 116.563 0 218.694 85.195 275.693 180.15-56.999 94.955-159.13 180.15-275.693 180.15zM506.879 280.554c-53.354 0-96.606 43.804-96.606 97.822s43.253 97.822 96.606 97.822 96.606-43.804 96.606-97.822-43.252-97.822-96.606-97.822z"  horiz-adv-x="1024" />

    
    <glyph glyph-name="warning" unicode="&#58920;" d="M516.212 132.483c-25.419 0-46.022 20.597-46.022 46.014 0 25.412 20.603 46.009 46.022 46.009 25.405 0 46.009-20.595 46.009-46.009-0.001-25.417-20.604-46.014-46.009-46.014v0zM516.212 285.215c-21.261 0-38.551 17.29-38.551 38.551v288.268c0 21.249 17.291 38.537 38.551 38.537 21.246 0 38.537-17.287 38.537-38.537v-288.267c-0.001-21.263-17.291-38.553-38.537-38.553zM516.205 833.187c-247.569 0-448.254-200.688-448.254-448.257 0-247.581 200.685-448.271 448.254-448.271 247.562 0 448.254 200.69 448.254 448.271 0 247.569-200.692 448.257-448.254 448.257zM516.205-3.577c-214.213 0-388.487 174.277-388.487 388.506 0 214.215 174.275 388.491 388.487 388.491 214.211 0 388.487-174.275 388.487-388.491 0-214.228-174.275-388.506-388.487-388.506z"  horiz-adv-x="1024" />

    
    <glyph glyph-name="help" unicode="&#59030;" d="M511.999 831.185c-246.583 0-447.185-200.602-447.185-447.185s200.602-447.185 447.185-447.185c246.584 0 447.185 200.602 447.185 447.185s-200.601 447.185-447.185 447.185zM511.999-10.575c-217.58 0-394.588 176.994-394.588 394.575s177.006 394.576 394.588 394.576c217.556 0 394.576-176.994 394.576-394.575s-177.021-394.576-394.576-394.576zM498.565 191.85c-11.046 0-20.448-3.698-28.129-11.122-7.707-7.399-11.559-16.801-11.559-28.155 0-10.635 3.905-19.652 11.739-27.050 7.835-7.424 17.16-11.123 27.95-11.123s19.805 3.699 26.972 11.123c7.193 7.397 10.79 16.415 10.79 27.050 0 11.611-3.546 21.065-10.584 28.334-7.090 7.296-16.132 10.943-27.179 10.943zM615.139 627.424c-14.334 10.353-30.466 18.238-48.345 23.684-17.828 5.42-36.735 8.143-56.669 8.143-19.524 0-38.097-2.646-55.692-7.887-17.597-5.292-34.012-13.384-49.322-24.301-15.285-10.918-27.538-26.125-36.786-45.649-9.248-19.524-13.872-42.385-13.872-68.588h55.076c0.282 27.897 8.708 50.966 25.354 69.282 16.621 18.291 40.948 27.436 72.93 27.436 26.972 0 49.501-6.987 67.612-20.936 18.11-13.974 27.179-34.782 27.179-62.448 0-19.395-4.675-35.167-14.026-47.318-9.35-12.151-25.56-27.152-48.602-44.98-11.56-9.839-20.628-18.034-27.229-24.635-6.654-6.602-13.77-14.874-21.373-24.815-7.604-9.967-13.204-20.371-16.749-31.237-3.57-10.841-5.343-22.734-5.343-35.655v-36.067h56.617v25.587c0 20.936 3.442 37.171 10.301 48.679 6.859 11.483 23.145 27.204 48.911 47.113 12.151 9.556 21.835 17.776 29.105 24.635s15.054 15.516 23.376 25.972c8.324 10.481 14.437 21.989 18.394 34.525 3.982 12.536 5.959 26.305 5.959 41.307 0 21.218-4.212 40.279-12.639 57.235-8.401 16.927-19.782 30.568-34.167 40.92z"  horiz-adv-x="1024" />

    
    <glyph glyph-name="reduce" unicode="&#58921;" d="M810.666667 362.66666699999996H213.333333a21.333333 21.333333 0 0 0 0 42.666666h597.333334a21.333333 21.333333 0 1 0 0-42.666666z"  horiz-adv-x="1024" />

    
    <glyph glyph-name="refresh" unicode="&#58964;" d="M508.8-96c-265.6 0-480 214.4-480 480 0 140.8 60.8 275.2 169.6 364.8 12.8 12.8 35.2 9.6 44.8-3.2 12.8-12.8 9.6-32-3.2-44.8-92.8-80-147.2-195.2-147.2-316.8 0-230.4 185.6-416 416-416 64 0 128 16 185.6 44.8 16 6.4 35.2 0 41.6-12.8 6.4-16 0-35.2-12.8-41.6-67.2-38.4-137.6-54.4-214.4-54.4zM835.2 44.799999999999955c-6.4 0-16 3.2-22.4 9.6-12.8 12.8-12.8 32 0 44.8 73.6 76.8 112 179.2 112 284.8 0 230.4-185.6 416-416 416-48 0-99.2-9.6-144-25.6-16-6.4-35.2 3.2-41.6 19.2-6.4 16 3.2 35.2 19.2 41.6 54.4 19.2 108.8 28.8 166.4 28.8 265.6 0 480-214.4 480-480 0-121.6-44.8-240-131.2-329.6-3.2-6.4-12.8-9.6-22.4-9.6zM960 38.39999999999998h-176v176c0 19.2 12.8 32 32 32s32-12.8 32-32v-112H960c19.2 0 32-12.8 32-32s-12.8-32-32-32zM240 553.6c-19.2 0-32 12.8-32 32V697.6H92.8c-19.2 0-32 12.8-32 32s12.8 32 32 32h176v-176c3.2-19.2-12.8-32-28.8-32z"  horiz-adv-x="1024" />

    


  </font>
</defs>
</svg>
