<?xml version="1.0" standalone="no"?><!DOCTYPE svg PUBLIC "-//W3C//DTD SVG 1.1//EN" "http://www.w3.org/Graphics/SVG/1.1/DTD/svg11.dtd"><svg t="1502030558044" class="icon" style="" viewBox="0 0 1024 1024" version="1.1" xmlns="http://www.w3.org/2000/svg" p-id="7484" xmlns:xlink="http://www.w3.org/1999/xlink" width="200" height="200"><defs><style type="text/css"></style></defs><path d="M603.456457 341.30741l0 542.010501c26.541493-6.54609 51.999304-15.821337 76.052117-27.545356L679.508573 235.477083c-7.976672 3.678786-23.943318 11.129478-36.550451 21.169135C616.950795 277.382495 603.456457 303.730583 603.456457 341.30741" p-id="7485" fill="#ffffff"></path><path d="M381.162628 256.645195c-12.609179-10.039657-28.562523-17.49035-36.546358-21.169135L344.61627 855.804277c24.036439 11.732206 49.499367 21.021779 76.032674 27.545356L420.648944 341.30741C420.648944 303.730583 407.182234 277.382495 381.162628 256.645195" p-id="7486" fill="#ffffff"></path><path d="M663.509181 160.877037c-46.465265-20.071128-97.676623-31.225165-151.501506-31.225165-53.569056 0-104.578824 11.013845-150.829194 30.916127-7.211239 3.740184-16.983813 10.881838-16.983813 22.242584 0 20.250206 28.093848 15.984043 63.23316 43.992957 32.547277 25.907043 49.376571 62.371536 49.376571 103.242386l0 560.28982c18.042935 2.580778 36.4604 3.972475 55.202253 3.972475 18.781762 0 37.253462-1.390673 55.292304-3.972475L567.298955 330.046948c0-40.869826 16.864086-77.334319 49.372477-103.242386 35.181267-28.008914 63.259766-23.74275 63.259766-43.992957C679.933245 171.751712 670.628322 164.67248 663.509181 160.877037" p-id="7487" fill="#ffffff"></path><path d="M512.008698 922.124751c-226.532363 0-410.158521-183.622064-410.158521-410.124751S285.476335 101.875249 512.008698 101.875249c226.502687 0 410.094052 183.622064 410.094052 410.124751S738.510362 922.124751 512.008698 922.124751M512.008698 64.815191c-246.987231 0-447.196065 200.215998-447.196065 447.184809 0 246.960625 200.207811 447.184809 447.196065 447.184809 246.976998 0 447.177646-200.224184 447.177646-447.184809C959.186344 265.031189 758.984672 64.815191 512.008698 64.815191" p-id="7488" fill="#ffffff"></path><path d="M129.653407 512c0 135.858224 70.862931 255.122515 177.621397 322.93497L307.274804 542.088272c-43.525306 1.12052-59.531861 27.482935-64.381309 37.732369-3.984754 8.401344-6.565533 17.258059-14.113439 17.258059-12.609179 0-22.861684-36.488029-22.861684-81.540108s10.252505-81.554434 22.861684-81.554434c7.547907 0 10.128685 8.856715 14.113439 17.258059 4.849448 10.233062 20.856004 36.604686 64.381309 37.693484L307.274804 189.048657C200.516338 256.846786 129.653407 376.148939 129.653407 512" p-id="7489" fill="#ffffff"></path><path d="M831.844074 579.820642c-3.964288 8.393157-6.522554 17.258059-14.066367 17.258059-12.636808 0-22.877033-36.503379-22.877033-81.540108 0-45.051055 10.241248-81.554434 22.877033-81.554434 7.543813 0 10.102079 8.856715 14.066367 17.258059 4.78498 10.04682 20.203134 35.537378 61.768809 37.608549-7.512091-126.119419-76.174913-235.784074-176.782286-299.740712l0 645.75533c98.689696-62.750159 166.689417-169.509648 176.311565-292.64613C851.939761 544.476669 836.598354 569.828057 831.844074 579.820642" p-id="7490" fill="#ffffff"></path></svg>