<?xml version="1.0" standalone="no"?><!DOCTYPE svg PUBLIC "-//W3C//DTD SVG 1.1//EN" "http://www.w3.org/Graphics/SVG/1.1/DTD/svg11.dtd"><svg t="1502030641498" class="icon" style="" viewBox="0 0 1024 1024" version="1.1" xmlns="http://www.w3.org/2000/svg" p-id="9860" xmlns:xlink="http://www.w3.org/1999/xlink" width="200" height="200"><defs><style type="text/css"></style></defs><path d="M512.0527 65.45687c-247.027386 0-447.356148 200.297039-447.356148 447.249724 0 247.059109 200.328761 445.83756 447.356148 445.83756 246.946545 0 447.249724-198.778451 447.249724-445.83756C959.303448 265.753909 758.999246 65.45687 512.0527 65.45687M408.09492 598.581512c-7.564287 0-13.558821-6.087655-13.558821-11.990091L394.536099 438.847348c0-7.465026 5.994534-13.477979 13.558821-13.477979l207.835743 0c7.537681 0 13.527098 6.012953 13.527098 13.477979l0 147.744073c0 5.902436-5.989417 11.990091-13.527098 11.990091L408.09492 598.581512zM563.235458 859.093018 563.235458 693.432882l58.708159 0c57.20799 0 103.939361-46.64439 103.939361-105.41497L725.882977 435.958552c0-57.345113-46.731371-103.902522-103.939361-103.902522l-58.708159 0L563.235458 164.833304c170.198504 24.072279 299.691893 170.192364 299.691893 347.87329C862.92735 688.931353 733.433961 835.014599 563.235458 859.093018M161.091069 512.706594c0-177.680926 129.487249-323.801011 299.673473-347.87329l0 167.222726-58.658017 0c-57.264272 0-103.971084 46.557409-103.971084 103.902522l0 152.05936c0 58.77058 46.706811 105.41497 103.971084 105.41497l58.658017 0 0 165.661159C290.579342 835.014599 161.091069 688.931353 161.091069 512.706594" p-id="9861" fill="#ffffff"></path></svg>