<?xml version="1.0" standalone="no"?><!DOCTYPE svg PUBLIC "-//W3C//DTD SVG 1.1//EN" "http://www.w3.org/Graphics/SVG/1.1/DTD/svg11.dtd"><svg t="1502030588144" class="icon" style="" viewBox="0 0 1024 1024" version="1.1" xmlns="http://www.w3.org/2000/svg" p-id="8407" xmlns:xlink="http://www.w3.org/1999/xlink" width="200" height="200"><defs><style type="text/css"></style></defs><path d="M379.672694 421.052638c0 72.750931 59.257615 131.692345 132.300188 131.692345 73.119321 0 132.403542-58.941414 132.403542-131.692345 0-72.777537-59.284221-131.74351-132.403542-131.74351C438.931333 289.309128 379.672694 348.275101 379.672694 421.052638zM458.686259 367.946117 565.329091 367.946117l0 106.153692L458.686259 474.099808 458.686259 367.946117zM245.556137 443.086467c-16.825201-16.71366-22.196535-36.855396 0.419556-59.360969 21.323655-21.169135 187.163727-186.264241 187.163727-186.264241l-45.345768-45.13906c0 0-275.344069 274.161127-299.67522 298.345945-33.214473 33.04358-28.27088 71.800279-2.87856 97.0565 14.298658 14.272052 103.678314 103.223966 150.471037 149.8284 17.656125 17.596773 14.110369 41.266869-3.846608 59.113329-11.582803 11.505032-115.527177 115.012454-115.527177 115.012454l276.774651-0.085958 98.949616-107.215884c28.990265-28.89612 22.822798-54.229089 3.948939-73.068156C496.013399 691.307805 255.116887 452.605262 245.556137 443.086467zM938.757059 547.724643c25.427112-25.25622 30.309306-64.012919-2.904143-97.0565C911.565766 426.484348 636.186905 152.322198 636.186905 152.322198l-45.320185 45.13906c0 0 165.857469 165.095106 187.147354 186.264241 22.650883 22.505573 17.279548 42.646286 0.462534 59.360969-9.586332 9.517771-250.448052 248.220315-250.448052 248.220315-18.915815 18.839067-25.067932 44.172035 3.923356 73.068156l98.991572 107.215884 276.749068 0.085958c0 0-103.95256-103.506399-115.53434-115.012454-17.930371-17.845437-21.49557-41.515532-3.898797-59.113329C835.086931 650.948609 924.466588 561.997718 938.757059 547.724643z" p-id="8408" fill="#ffffff"></path></svg>