<?xml version="1.0" standalone="no"?><!DOCTYPE svg PUBLIC "-//W3C//DTD SVG 1.1//EN" "http://www.w3.org/Graphics/SVG/1.1/DTD/svg11.dtd"><svg t="1502030650049" class="icon" style="" viewBox="0 0 1024 1024" version="1.1" xmlns="http://www.w3.org/2000/svg" p-id="10164" xmlns:xlink="http://www.w3.org/1999/xlink" width="200" height="200"><defs><style type="text/css"></style></defs><path d="M313.068565 238.979075c38.742411-35.576299 107.742994-94.298784 245.037054-99.281267 145.9144-5.382596 362.944559 83.259345 401.195782 342.630887 0 0 3.003407-216.199233-193.978117-344.944585-25.428161-16.710607-64.603431-33.951287-97.663418-45.150361-47.758771-16.082296-108.398934-27.214856-163.465142-26.290809-117.208586 1.982146-219.009235 48.683841-285.482249 115.136389-62.329643 62.321456-147.676535 185.551182-120.125011 351.91126 28.431568 171.188042 165.660136 319.838765 344.447257 319.838765 189.053962 0 337.183823-133.625504 337.183823-320.596012 0-19.616799 1.68948-91.486735-29.752657-139.542266 20.244087 24.215542 62.488255 108.698763 51.58594 208.904076-11.797709 107.436002-61.405596 165.895497-96.443636 199.418018-37.622913 36.200516-121.807328 93.071838-252.299465 95.749833-124.059628 2.540872-333.414982-85.180093-388.61115-354.883968 0 0 22.360286 291.702933 279.121371 385.697795 181.255338 66.257096 358.05622 19.551308 473.655143-90.631251 71.144411-67.838106 131.720105-193.868623 104.962668-355.251335-29.753681-181.616566-173.725844-302.892798-352.606086-302.294163-79.331892 0.296759-199.853947 27.966986-278.298632 149.050837-72.819565 112.5904-36.092046 244.993052-17.63056 302.832422C163.977819 452.701905 248.602256 298.695191 313.068565 238.979075M511.435646 392.462879l119.265433 119.229618-119.265433 119.351391L392.14156 511.692496 511.435646 392.462879z" p-id="10165" fill="#ffffff"></path></svg>