<?xml version="1.0" standalone="no"?><!DOCTYPE svg PUBLIC "-//W3C//DTD SVG 1.1//EN" "http://www.w3.org/Graphics/SVG/1.1/DTD/svg11.dtd"><svg t="1502030553477" class="icon" style="" viewBox="0 0 1024 1024" version="1.1" xmlns="http://www.w3.org/2000/svg" p-id="7332" xmlns:xlink="http://www.w3.org/1999/xlink" width="200" height="200"><defs><style type="text/css"></style></defs><path d="M661.056316 780.192182c-63.963801 0-119.029954 37.951357-143.69675 92.440365l-10.734482 0c-24.659633-54.496172-79.719646-92.447529-143.689586-92.447529l0-26.546609c63.96994 0 119.037117-37.951357 143.703913-92.433202l10.734482 0c24.665773 54.489008 79.71146 92.440365 143.682423 92.440365L661.056316 780.192182 661.056316 780.192182zM512.006651 610.251721c63.962777 0 119.029954 37.951357 143.69675 92.440365l10.727319 0c24.665773-54.496172 79.726809-92.447529 143.689586-92.447529l0-26.546609c-63.962777 0-119.037117-37.951357-143.703913-92.434226l-10.734482 0c-24.659633 54.490032-79.712483 92.440365-143.67526 92.440365-63.96994 0-119.022791-37.951357-143.689586-92.440365l-10.734482 0c-24.659633 54.482869-79.732949 92.434226-143.703913 92.434226l0 26.546609c63.96994 0 119.029954 37.951357 143.689586 92.447529l10.734482 0C392.969535 648.203078 448.036711 610.251721 512.006651 610.251721L512.006651 610.251721zM362.935498 440.303075c-63.962777 0-119.029954 37.950334-143.69675 92.440365l-10.734482 0c-24.659633-54.497195-79.719646-92.447529-143.689586-92.447529l0-26.547633c63.96994 0 119.04428-37.944194 143.703913-92.433202l10.734482 0c24.659633 54.490032 79.719646 92.440365 143.682423 92.440365 63.96994 0 119.022791-37.950334 143.689586-92.440365l10.734482 0c24.659633 54.490032 79.741136 92.433202 143.703913 92.433202s119.037117-37.944194 143.703913-92.433202l10.734482 0c24.659633 54.490032 79.712483 92.440365 143.682423 92.440365l0 26.547633c-63.96994 0-119.037117 37.950334-143.703913 92.440365l-10.734482 0c-24.659633-54.497195-79.719646-92.447529-143.682423-92.447529s-119.029954 37.950334-143.689586 92.447529l-10.734482 0C481.972615 478.254431 426.905438 440.303075 362.935498 440.303075L362.935498 440.303075zM511.999488 270.355451c63.962777 0 119.029954 37.951357 143.69675 92.440365l10.734482 0c24.659633-54.496172 79.718623-92.447529 143.689586-92.447529l0-26.547633c-63.970964 0-119.037117-37.944194-143.703913-92.433202l-10.734482 0c-24.665773 54.490032-79.719646 92.440365-143.682423 92.440365-63.96994 0-119.022791-37.950334-143.682423-92.440365l-10.734482 0c-24.666796 54.490032-79.740112 92.433202-143.711076 92.433202l0 26.547633c63.96994 0 119.029954 37.950334 143.689586 92.447529l10.734482 0C392.962372 308.305785 448.029548 270.355451 511.999488 270.355451z" p-id="7333" fill="#ffffff"></path></svg>