<?xml version="1.0" standalone="no"?><!DOCTYPE svg PUBLIC "-//W3C//DTD SVG 1.1//EN" "http://www.w3.org/Graphics/SVG/1.1/DTD/svg11.dtd"><svg t="1502030645929" class="icon" style="" viewBox="0 0 1024 1024" version="1.1" xmlns="http://www.w3.org/2000/svg" p-id="10012" xmlns:xlink="http://www.w3.org/1999/xlink" width="200" height="200"><defs><style type="text/css"></style></defs><path d="M591.76117 677.789584c-27.399051 18.834993-49.742964-5.838991-49.742964-5.838991l-110.530483-194.88579-113.427466 194.88579c-16.595997 19.619869-44.745132 8.702205-44.745132 8.702205-28.934012-17.312312-17.323568-46.858261-17.323568-46.858261l135.101113-235.486528c15.834656-35.432013 39.58664-31.022582 39.58664-31.022582 26.094334-1.500168 41.202442 32.500237 41.202442 32.500237l134.30498 239.688227C613.43584 664.101827 591.76117 677.789584 591.76117 677.789584M335.361312 959.257399 335.361312 959.257399l189.807117 0-93.679683-165.362354L335.361312 959.257399zM725.869674 959.257399 725.869674 959.257399l190.037361 0-93.830109-165.362354L725.869674 959.257399zM781.614335 398.308009 781.614335 398.308009c15.904241-35.432013 39.748322-31.022582 39.748322-31.022582 25.989957-1.500168 41.178906 32.500237 41.178906 32.500237l96.761884 172.633975L959.303448 64.743625l-894.605872 0 0 894.513774 189.264764 0c0.657987-5.193284 2.031265-8.678669 2.031265-8.678669l135.101113-235.440479c15.834656-35.338892 39.58664-31.046118 39.58664-31.046118 26.094334-1.476632 41.202442 32.430652 41.202442 32.430652l134.30498 239.803861c0.369414 0.969072 0.554633 2.030242 0.762364 2.930752l37.671009 0 0-0.022513c0.623194-5.170771 2.007729-8.656156 2.007729-8.656156l134.986502-235.440479c15.904241-35.338892 39.748322-31.046118 39.748322-31.046118 25.989957-1.476632 41.178906 32.430652 41.178906 32.430652l96.761884 172.748585 0-204.487482c-15.534827-1.130754-26.729808-12.833296-26.729808-12.833296l-110.49569-194.88579-113.381417 194.88579c-16.689117 19.619869-44.756388 8.702205-44.756388 8.702205-28.968804-17.312312-17.311288-46.858261-17.311288-46.858261L781.614335 398.308009z" p-id="10013" fill="#ffffff"></path></svg>