<?xml version="1.0" standalone="no"?><!DOCTYPE svg PUBLIC "-//W3C//DTD SVG 1.1//EN" "http://www.w3.org/Graphics/SVG/1.1/DTD/svg11.dtd"><svg t="1502030582784" class="icon" style="" viewBox="0 0 1024 1024" version="1.1" xmlns="http://www.w3.org/2000/svg" p-id="8255" xmlns:xlink="http://www.w3.org/1999/xlink" width="200" height="200"><defs><style type="text/css"></style></defs><path d="M510.593466 61.910025c-247.793596 0-448.64302 200.87603-448.64302 448.695209 0 247.817132 200.849424 448.693162 448.64302 448.693162 247.846808 0 448.740234-200.87603 448.740234-448.693162C959.332676 262.786055 758.440273 61.910025 510.593466 61.910025zM630.962927 840.70744c-53.825906-1.981121-158.663626-19.160385-197.710944-119.729895-4.707209-12.234649-15.435551-59.917648-15.435551-59.917648L417.816432 514.27788c1.946328-46.375214 45.051055-41.22082 45.051055-41.22082s108.168582 0 116.530017 0.648776c8.40646 0.666172 34.139541 6.467295 33.123398 36.041868-0.367367 8.939603 0.376577 61.84044 0.376577 94.674243 0 32.815383-24.40176 39.232536-24.40176 39.232536s-65.693188-8.327666-94.671173 12.936637c0 0 30.861892 1.910513 44.404326 23.139 0 0 28.968775 100.480482 133.297912 79.217203 104.285135-21.280676 140.975778-144.866389 129.370463-212.465996-11.595083-67.62212-57.936527-123.621529-119.754454-137.16294 0 0-44.404326-94.644567-164.211992-98.484012-119.712499-3.882424-156.402119 90.77033-156.402119 90.77033s-148.732439 28.968775-146.839323 187.355085c1.428535 112.419396 56.367799 183.835935 123.367749 226.941686-106.083084-60.461023-177.657212-174.49315-177.657212-305.297264 0-194.011692 157.191088-351.272365 351.194594-351.272365 194.013739 0 351.299995 157.260673 351.299995 351.272365C861.89346 662.33903 765.644349 791.570323 630.962927 840.70744z" p-id="8256" fill="#ffffff"></path></svg>