<?xml version="1.0" standalone="no"?><!DOCTYPE svg PUBLIC "-//W3C//DTD SVG 1.1//EN" "http://www.w3.org/Graphics/SVG/1.1/DTD/svg11.dtd"><svg t="1502030562057" class="icon" style="" viewBox="0 0 1024 1024" version="1.1" xmlns="http://www.w3.org/2000/svg" p-id="7641" xmlns:xlink="http://www.w3.org/1999/xlink" width="200" height="200"><defs><style type="text/css"></style></defs><path d="M959.049221 511.982604c0-8.759501-0.261966-17.746176-0.935302-26.713408-4.28663-58.539254-22.305005-106.248859-50.758034-139.741671 21.467941-9.69378 8.794293-38.907125 1.772366-55.202253-30.380938-70.276576-119.033024-161.40711-190.244902-184.717002-15.229866-3.938706-34.425044-8.829086-39.812751 10.104125-33.67496-31.639604-87.289042-46.26879-150.002362-50.242288-5.730515-0.375553-11.413957-0.611937-17.048281-0.654916-5.640464 0.042979-11.281951 0.278339-17.055444 0.654916-62.704111 3.973498-116.41336 18.602683-150.001339 50.242288-5.379521-18.933211-24.662703-14.042831-39.893592-10.104125-71.13206 23.308869-159.817915 114.440425-190.209086 184.717002-7.020904 16.296151-19.640316 45.509497 1.772366 55.202253-28.54001 33.491789-46.425356 81.202417-50.801013 139.741671-0.585331 8.968256-0.88209 17.954931-0.88209 26.713408l0 0.035816c0 8.80248 0.296759 17.745153 0.88209 26.77583 4.375657 58.44204 22.261003 106.222253 50.801013 139.678226-21.413706 9.642614-8.794293 38.915311-1.772366 55.159274 30.392194 70.355371 119.078049 161.468508 190.209086 184.803983 15.230889 3.930519 34.514071 8.794293 39.893592-10.086729 33.587979 31.615045 87.297228 46.207391 150.001339 50.294476 5.773494 0.261966 11.414981 0.497327 17.055444 0.541329 5.634324-0.044002 11.31879-0.279363 17.048281-0.541329 62.71332-4.087085 116.327402-18.680455 150.002362-50.294476 5.38873 18.881023 24.582885 14.017248 39.812751 10.086729 71.211878-23.335475 159.863964-114.448612 190.244902-184.803983 7.020904-16.243963 19.694551-45.51666-1.772366-55.159274 28.453029-33.455973 46.470381-81.236186 50.758034-139.678226 0.673335-9.030677 0.935302-17.97335 0.935302-26.77583L959.049221 511.982604 959.049221 511.982604zM777.100262 169.710216 777.100262 169.710216c3.990894-0.916882 8.41874-2.734274 8.654101-7.55507 0.140193-2.671852-1.597381-5.563716-3.317559-7.53665 25.247011 20.103874 57.875129 53.919027 83.759659 86.799902-13.718443-8.489348-13.806447 10.776438-13.298887 21.814842 0.427742 5.554506 1.352811 11.659551 2.182712 16.10377-22.644743-47.010687-64.136739-86.039585-109.812011-109.933785C752.517377 170.600493 767.835248 171.805948 777.100262 169.710216L777.100262 169.710216zM706.596512 193.298448 706.596512 193.298448c21.807678 31.615045 66.372663 81.174787 105.306394 110.956068 3.03001 2.322905 9.004071 7.68503 17.509792 13.667278-26.513864 6.794753-44.278459 24.321942-58.426691 43.61331-14.182001 19.640316-25.247011 43.316551-32.452109 69.542866-26.801413-68.503187-73.568553-117.007901-141.662417-144.221706C646.949017 269.112134 691.742199 246.090814 706.596512 193.298448L706.596512 193.298448zM662.494061 511.982604 662.494061 511.982604l0 0.035816c-64.984037 22.1116-112.169709 64.188928-139.653667 123.199926-3.963265 8.610098-6.995321 17.789155-10.82044 26.853601-3.921309-9.064446-6.907317-18.243503-10.819416-26.853601-27.526937-59.010999-74.747401-101.087303-139.740648-123.199926l0-0.035816c64.992223-22.086018 112.212688-64.189951 139.740648-123.286907 3.9121-8.524141 6.898107-17.659195 10.819416-26.732851 3.825119 9.073656 6.857175 18.20871 10.82044 26.732851C550.324352 447.792653 597.510024 489.896586 662.494061 511.982604L662.494061 511.982604zM436.51326 91.949178 436.51326 91.949178c22.261003 2.821255 48.949852 3.930519 75.506694 3.895727 26.461675 0.034792 53.159734-1.074472 75.386968-3.895727-8.637728 7.982812-14.026458 18.951631-12.883425 34.924417 1.974981 27.474748 18.85544 46.591131 30.382984 64.294328-24.924669-12.000312-56.057737-20.48045-92.640933-21.370727-0.079818 0-0.201591 0-0.245593 0-0.12996 0-0.217964 0-0.305969 0-36.608779 0.890276-67.716264 9.370415-92.675726 21.370727 11.615549-17.703197 28.461215-36.81958 30.400381-64.294328C450.609303 110.899786 445.220572 99.93199 436.51326 91.949178L436.51326 91.949178zM317.35744 193.298448 317.35744 193.298448c14.907525 52.792367 59.683311 75.813686 109.768009 93.558839-68.179822 27.213805-114.858958 75.717496-141.626601 144.221706-7.196912-26.226315-18.313088-49.90255-32.574906-69.542866-14.026458-19.292392-31.780821-36.818557-58.346873-43.61331 8.549723-5.983271 14.522762-11.345396 17.432021-13.667278C251.019569 274.473235 295.637766 224.912469 317.35744 193.298448L317.35744 193.298448zM241.508961 154.618497 241.508961 154.618497c-1.76418 1.973958-3.370771 4.864798-3.282766 7.53665 0.173962 4.820796 4.671393 6.637164 8.680706 7.55507 9.256828 2.095731 24.539906 0.890276 31.719422-0.305969-45.613874 23.8942-87.079264 62.922075-109.715821 109.933785 0.803295-4.445242 1.772366-10.550287 2.060939-16.10377 0.629333-11.038404 0.463558-30.30419-13.134135-21.814842C183.643042 208.537524 216.26195 174.72237 241.508961 154.618497L241.508961 154.618497zM95.629499 588.241428 95.629499 588.241428c2.357697-21.51092 3.746324-48.5129 3.790326-76.223009l0-0.035816c-0.044002-27.640524-1.432629-54.616922-3.790326-76.328409 6.192026 7.54586 17.09126 13.484106 30.094412 13.247722 21.082154-0.37453 46.347584-13.885242 65.028039-29.002544-11.44875 24.732288-19.955494 56.101739-19.955494 92.082208l0 0.035816c0 36.007075 8.506744 67.349921 19.955494 92.082208-18.680455-15.099906-43.945885-28.566616-65.028039-29.02915C112.720759 574.887282 101.821525 580.747757 95.629499 588.241428L95.629499 588.241428zM246.906901 854.341972 246.906901 854.341972c-4.00829 0.777713-8.506744 2.681062-8.680706 7.54586-0.086981 2.64627 1.51961 5.554506 3.282766 7.54586-25.247011-20.103874-57.865919-53.945633-83.672678-86.790692 13.597693 8.383948 13.763468-10.881838 13.134135-21.850657-0.288572-5.519714-1.257643-11.642155-2.060939-16.122189 22.636556 47.046502 64.101947 85.996606 109.715821 109.995183C271.446807 853.460906 256.163729 852.316849 246.906901 854.341972L246.906901 854.341972zM317.35744 830.815139 317.35744 830.815139c-21.719674-31.780821-66.337871-81.280188-105.34835-111.112634-2.908236-2.279926-8.882298-7.642051-17.432021-13.615089 26.566052-6.846942 44.321438-24.322965 58.346873-43.666522 14.261818-19.562545 25.377994-43.264363 32.574906-69.429279 26.767644 68.433602 73.445756 116.89329 141.626601 144.184867C377.04075 754.897076 332.264964 777.935792 317.35744 830.815139L317.35744 830.815139zM587.406922 932.059008 587.406922 932.059008c-22.227234-2.837628-48.925293-4.033873-75.386968-3.90289-26.556842-0.130983-53.245691 1.065262-75.506694 3.90289 8.707312-7.92039 14.09502-18.898419 12.925381-34.828226-1.939165-27.553543-18.784832-46.740534-30.400381-64.424288 24.959461 12.051477 56.06797 20.514219 92.675726 21.3871 0.088004 0 0.176009 0 0.305969 0 0.044002 0 0.165776 0 0.245593 0 36.583197-0.873903 67.716264-9.335622 92.640933-21.3871-11.528568 17.683754-28.409027 36.870746-30.382984 64.424288C573.380464 913.161612 578.769194 924.138618 587.406922 932.059008L587.406922 932.059008zM706.596512 830.815139 706.596512 830.815139c-14.854313-52.879348-59.647495-75.91704-109.724007-93.637634 68.093864-27.291576 114.859981-75.751265 141.662417-144.184867 7.205099 26.163893 18.270109 49.865711 32.452109 69.429279 14.148231 19.343557 31.912827 36.818557 58.426691 43.666522-8.506744 5.973038-14.479783 11.335163-17.509792 13.615089C772.969175 749.534951 728.403167 799.034319 706.596512 830.815139L706.596512 830.815139zM782.436804 869.433692 782.436804 869.433692c1.721201-1.991354 3.457752-4.89959 3.317559-7.54586-0.23536-4.864798-4.663206-6.768147-8.654101-7.54586-9.266038-2.025123-24.582885-0.881067-31.831986 0.323365 45.675272-23.998577 87.167269-62.949704 109.812011-109.995183-0.829901 4.480035-1.75497 10.602476-2.182712 16.122189-0.50756 10.968819-0.419556 30.234605 13.298887 21.850657C840.311933 815.488059 807.683814 849.329818 782.436804 869.433692L782.436804 869.433692zM928.360268 588.241428 928.360268 588.241428c-6.139837-7.493671-17.134239-13.354146-30.093389-13.169951-21.040199 0.462534-46.37419 13.929244-64.984037 29.02915 11.404748-24.732288 19.954471-56.076156 19.954471-92.082208l0-0.035816c0-35.980469-8.549723-67.349921-19.954471-92.082208 18.609847 15.116279 43.943838 28.628014 64.984037 29.002544 12.95915 0.23536 23.953551-5.701862 30.093389-13.247722-2.39249 21.711488-3.789303 48.687886-3.913123 76.328409l0 0.035816C924.570965 539.728528 925.967778 566.730509 928.360268 588.241428z" p-id="7642" fill="#ffffff"></path></svg>