<?xml version="1.0" standalone="no"?><!DOCTYPE svg PUBLIC "-//W3C//DTD SVG 1.1//EN" "http://www.w3.org/Graphics/SVG/1.1/DTD/svg11.dtd"><svg t="1502030536336" class="icon" style="" viewBox="0 0 1024 1024" version="1.1" xmlns="http://www.w3.org/2000/svg" p-id="6868" xmlns:xlink="http://www.w3.org/1999/xlink" width="200" height="200"><defs><style type="text/css"></style></defs><path d="M424.593789 325.160661c39.120996 24.744567 39.313378 91.947132 0.427742 149.575644-38.885636 57.621349-102.489232 84.435041-141.619438 59.690474-39.120996-24.752754-39.330774-91.954295-0.446162-149.58383C321.834404 327.21239 385.464607 300.406884 424.593789 325.160661L424.593789 325.160661zM707.211519 64.815191c73.795726 0 133.992737 60.730153 133.992737 135.216611 0 33.330106-12.045337 63.900356-31.993668 87.518263-47.175439-78.783321-123.992989-137.635707-214.655871-160.597675C618.443799 89.611947 660.046313 64.815191 707.211519 64.815191L707.211519 64.815191zM313.536414 64.815191c47.016827 0 88.51394 24.656563 112.446002 61.812811-90.846054 22.639626-167.891801 81.229023-215.353766 159.864988-19.416212-23.469528-31.111578-53.620221-31.111578-86.461187C179.517071 125.545344 239.705895 64.815191 313.536414 64.815191L313.536414 64.815191zM826.56586 321.142138C864.543823 351.99175 908.17146 421.247066 929.588235 510.86106c34.789341 145.505955-2.069125 380.241141-194.836477 442.692494-44.406372 14.368242-100.035344-9.765411-111.275339-53.839209-11.101849-43.584658 8.17417-87.203084 39.469943-116.27112C934.156274 628.643604 845.380368 358.009813 826.56586 321.142138L826.56586 321.142138zM191.753767 321.142138c-74.740238 55.357795-244.544599 466.859917 95.396697 618.20895 120.438023 53.601802 268.258697-8.176217 307.309084-104.794741 42.912345-106.140389-6.436596-236.255819-90.156346-237.671051-91.291193-1.555425-147.663084 101.127212-55.750745 140.054803 26.229384 11.092639 52.065819-17.460674 52.065819-17.460674s7.354502 90.812285-146.867976 54.075593C76.382133 632.381741 174.564269 355.808682 191.753767 321.142138L191.753767 321.142138zM594.311169 325.160661c-39.130206 24.744567-39.322587 91.947132-0.436952 149.575644 38.893822 57.621349 102.506629 84.435041 141.626601 59.690474 39.120996-24.752754 39.331797-91.954295 0.446162-149.58383C697.062368 327.21239 633.433188 300.406884 594.311169 325.160661z" p-id="6869" fill="#ffffff"></path></svg>