<?xml version="1.0" standalone="no"?><!DOCTYPE svg PUBLIC "-//W3C//DTD SVG 1.1//EN" "http://www.w3.org/Graphics/SVG/1.1/DTD/svg11.dtd"><svg t="1502030629723" class="icon" style="" viewBox="0 0 1024 1024" version="1.1" xmlns="http://www.w3.org/2000/svg" p-id="9547" xmlns:xlink="http://www.w3.org/1999/xlink" width="200" height="200"><defs><style type="text/css"></style></defs><path d="M828.30682 828.230072l0.098237-0.171916-0.363274 0.410346L828.30682 828.230072zM948.388853 413.900142c-57.473027-30.246915-120.928308-45.374465-184.375402-45.374465-41.634278 0-83.257299 6.508234-123.217446 19.528795 15.830563-48.505786 22.06455-99.480811 18.707079-149.933951 34.397449-6.771224 69.325994-10.152231 104.264773-10.153254 33.978916 0 67.949646 3.199882 101.432258 9.599645-28.572784-36.754125-62.704173-68.84504-101.161082-95.152222-39.986753 0-79.96225 3.817959-119.344228 11.458994-7.746436-26.746181-18.360178-52.835398-31.839181-77.770325-32.385627-7.558147-66.197744-11.403736-100.888882-11.403736-3.296073 0-6.575772 0.042979-9.818633 0.080841 28.112296 33.354699 48.065763 71.268231 59.871659 111.114791-44.13524 15.078432-86.917669 35.260097-127.385376 60.528622-4.886292-37.185961-21.584619-73.093811-50.097028-101.605197-14.518683-14.454214-30.753452-25.912185-48.367639-34.259302-49.601748 21.241811-94.635452 51.191967-133.167062 87.947116 16.543808-13.176104 36.647702-19.780529 56.746479-19.780529 23.26796 0 46.528756 8.846491 64.266763 26.579382 35.439176 35.460665 35.439176 93.144493 0 128.630741-17.730844 17.723681-41.027456 26.586545-64.322022 26.586545-23.292519 0-46.581968-8.862864-64.301556-26.586545-33.05794-33.04566-35.352195-85.334612-6.742571-121.098177-36.806314 38.555146-66.771819 83.675831-87.971675 133.320558 8.302091 17.499577 19.844997 33.882725 34.217347 48.33694 28.49092 28.486826 64.39877 45.177991 101.575521 50.069399-25.264432 40.463614-45.435864 83.235809-60.507133 127.370026-39.822001-11.822268-77.705857-31.783922-111.039067-59.892125-0.160659 3.328818-0.227174 6.625914-0.227174 9.960872 0 34.628716 3.968385 68.389668 11.420109 100.86023 24.955393 13.496399 51.049727 24.118328 77.810234 31.871927-7.629779 39.379932-11.440575 79.355428-11.440575 119.335018 26.268296 38.493748 58.390933 72.612857 95.079567 101.12629-12.926417-67.882108-12.737105-137.803667 0.607844-205.641773 8.836258 0.590448 17.683772 0.884137 26.536403 0.884137 41.68442 0 83.345303-6.523584 123.335126-19.577914-32.838952 100.85409-24.179726 212.373087 25.909116 307.600011 31.60996 7.069006 64.350675 10.8358 98.012366 10.8358 3.747351 0 7.334043-0.061398 10.933014-0.124843-98.559835-121.737744-91.262631-301.21969 21.806677-414.321744 60.47234-60.578764 139.8994-90.844099 219.31111-90.844099 69.2165 0 138.415605 22.981434 195.084312 68.911555 0-3.642974 0.203638-7.248085 0.203638-10.915618C959.303448 478.288679 955.494698 445.472239 948.388853 413.900142zM484.071388 484.027385c-60.491783 60.520436-139.940332 90.781677-219.376602 90.781677-0.827856 0-1.662874-0.004093-2.489706-0.010233 26.004283-69.357717 66.852661-134.375588 122.577879-190.072153 55.689402-55.717032 120.70011-96.579736 190.056804-122.589135C575.449653 342.403713 545.187388 422.879662 484.071388 484.027385zM764.026754 587.70171c-45.162641 0-90.337561 17.212027-124.766733 51.639152-68.713033 68.7028-68.713033 180.665913 0.061398 249.431135 14.593384 14.640456 31.123889 26.103544 48.855757 34.506943 52.527383-22.586437 99.959719-54.87792 139.866654-94.809414-17.668422 17.588605-40.849401 26.395186-64.02117 26.395186-23.26796 0-46.521593-8.870027-64.204342-26.633617-35.450432-35.41871-35.450432-92.997137 0-128.385147 17.654096-17.739031 40.908753-26.608034 64.181829-26.608034 23.275123 0 46.568665 8.869004 64.307696 26.608034 35.331728 35.331728 35.331728 92.761776 0.098237 128.213232 39.886469-39.888515 72.244466-87.333131 94.795088-139.856421-8.35735-17.703215-19.882859-34.265442-34.483407-48.860873C854.339756 604.914761 809.189395 587.70171 764.026754 587.70171z" p-id="9548" fill="#ffffff"></path></svg>