<?xml version="1.0" standalone="no"?><!DOCTYPE svg PUBLIC "-//W3C//DTD SVG 1.1//EN" "http://www.w3.org/Graphics/SVG/1.1/DTD/svg11.dtd"><svg t="1502018897970" class="icon" style="" viewBox="0 0 1024 1024" version="1.1" xmlns="http://www.w3.org/2000/svg" p-id="4701" xmlns:xlink="http://www.w3.org/1999/xlink" width="200" height="200"><defs><style type="text/css"></style></defs><path d="M892.378775 64.787562c-180.635033 0-336.026126 106.502639-407.220608 259.732509-0.807389 1.670036-1.496074 3.39533-2.28095 5.098112-7.53358 16.812921-14.399965 33.998325-19.848047 51.826366-0.414439 0.862647-0.76441 1.441838-1.168615 2.347464-4.377704 10.983145-9.56382 20.448728-14.913665 29.565363a234.647181 234.647181 0 0 1-14.738679 21.660322c-44.838208 58.551534-103.270015 70.942749-103.270015 70.942749s57.426921 7.086395 103.685477 80.660064C403.799184 702.328813 309.720505 792.290731 191.361841 815.283398V208.6726c96.501868 18.767436 176.911222 82.112136 218.944547 167.598112 3.51608-6.900154 6.800893-14.170744 9.902534-21.769816 0.458441-1.168616 0.906649-1.823532 1.352811-2.904143 13.538341-44.086078 32.546254-85.715197 56.085366-124.320446-82.275865-99.209536-206.737528-162.488745-346.026897-162.488745-22.796192 0-44.970214 2.237971-66.805522 5.469572v883.440707c21.835308 3.275603 44.00933 5.513574 66.805522 5.513574 160.272263 0 300.848952-78.487585 380.394636-201.978131 11.026124-17.151635 20.939915-35.056424 29.511127-53.791114 0.414439-0.949628 0.774643-1.899256 1.15736-2.729157 8.308223-18.61394 15.601326-37.677111 21.300118-57.689911 3.76679-10.272971 7.817036-19.552312 12.052501-28.341488 0.807389-1.735527 1.681292-3.39533 2.542916-5.098112 4.082992-8.123005 8.309246-15.787568 12.632715-22.709211 46.301536-73.825402 103.827717-80.910774 103.827716-80.910774s-58.366316-12.391215-103.162567-70.80051c29.478382-114.691135 123.174344-203.659423 240.768598-226.48836v606.610797c-102.670357-19.968797-187.009208-90.410126-226.411612-184.236047-4.814656 10.066263-9.432837 20.6012-13.734816 32.327266-12.991895 45.701878-32.502251 88.182388-56.902988 127.005602 82.178651 104.143918 211.378222 168.831196 356.780823 168.831196 22.763446 0 44.969191-2.237971 66.805521-5.513574V70.257134c-21.834284-3.231601-44.040029-5.469572-66.803475-5.469572z" p-id="4702" fill="#ffffff"></path></svg>