<?xml version="1.0" standalone="no"?><!DOCTYPE svg PUBLIC "-//W3C//DTD SVG 1.1//EN" "http://www.w3.org/Graphics/SVG/1.1/DTD/svg11.dtd"><svg t="1502030522070" class="icon" style="" viewBox="0 0 1024 1024" version="1.1" xmlns="http://www.w3.org/2000/svg" p-id="6555" xmlns:xlink="http://www.w3.org/1999/xlink" width="200" height="200"><defs><style type="text/css"></style></defs><path d="M818.17475 606.379531c32.313963-257.662361-45.938262-354.244047-56.462966-406.146137-13.632485-50.819432-0.109494-105.089453-76.455299-129.667222-140.048663-40.872896-359.359554 139.578965-443.302385 431.588599-1.932002-1.940189-30.697139-12.759605-43.900859 11.625782 24.691355 11.625782 13.356193 103.249549 20.931728 183.796026 4.628414 79.697133 33.158191 140.519384 72.41938 183.080735 1.025353 0.983397 40.72247 35.606962 90.528829 40.554648 70.52524 1.512447 117.219725-28.525684 167.020968-78.816067 53.246715-58.570977 118.302383-159.679769 125.383662-332.488557 8.055466-153.119353-32.901341-203.560162-35.262108-206.248388-4.729721-5.720282-7.937786-5.963829-12.204973-6.115278-8.466835-0.327458-16.649192 7.996115-14.82566 16.320711 13.346983 56.161091 13.238512 137.15987 2.712785 193.455014-19.638269 180.242084-131.708717 288.775986-199.334931 274.782274-32.629141-7.752568-88.450495-37.900192-84.585467-181.325765 9.017374-144.711869 62.258972-252.817006 109.704564-322.157257 86.522586-122.745578 174.433798-150.145625 208.352305-145.836483 43.964304 2.419096 39.445384 47.802726 47.560202 85.005023 9.760295 43.712571 64.510246 147.0798 44.862767 348.322174-24.468275 148.374282-91.456968 264.660752-193.219653 330.127789-63.065338 40.041972-119.906927 47.416939-178.12077 40.9916 20.10899 8.921183 40.742936 14.648628 60.907185 17.144472 103.631242 15.547091 178.146353-7.753591 233.450936-53.120848 68.827575-48.516993 101.888552-110.540605 136.664589-125.181047-12.44852-28.853142-35.631522-17.657148-35.631522-17.657148S801.863249 698.550767 818.17475 606.379531z" p-id="6556" fill="#ffffff"></path></svg>