<?xml version="1.0" standalone="no"?><!DOCTYPE svg PUBLIC "-//W3C//DTD SVG 1.1//EN" "http://www.w3.org/Graphics/SVG/1.1/DTD/svg11.dtd"><svg t="1502030637619" class="icon" style="" viewBox="0 0 1024 1024" version="1.1" xmlns="http://www.w3.org/2000/svg" p-id="9699" xmlns:xlink="http://www.w3.org/1999/xlink" width="200" height="200"><defs><style type="text/css"></style></defs><path d="M553.498689 234.826494c0 24.115258-19.672058 43.718754-43.730011 43.718754-24.132654 0-43.656333-19.603496-43.656333-43.718754L466.112346 108.616898c0-24.046696 19.523678-43.650193 43.656333-43.650193 24.057953 0 43.730011 19.603496 43.730011 43.650193L553.498689 234.826494z" p-id="9700" fill="#ffffff"></path><path d="M439.415284 250.811577c20.822255 12.046373 27.945497 38.818136 15.961546 59.749885-12.068885 20.8857-38.778227 28.053967-59.663928 16.008618l-109.246232-63.024468c-20.955285-12.160983-28.036571-38.864185-16.053644-59.795934 12.034093-20.874444 38.823253-28.042711 59.720209-16.053644L439.415284 250.811577z" p-id="9701" fill="#ffffff"></path><path d="M396.166227 357.646897c20.823279-12.045349 47.732165-4.968157 59.727373 16.032154 12.00544 20.863188 4.96304 47.588902-15.991222 59.566713l-109.388472 63.196384c-20.77723 12.080142-47.485548 4.878106-59.509408-15.972802-12.131307-21.001334-4.992716-47.659511 15.927777-59.784678L396.166227 357.646897z" p-id="9702" fill="#ffffff"></path><path d="M581.209849 432.397443c-21.035103-12.000324-28.191091-38.748551-16.123229-59.681324 12.068885-20.839652 38.897954-28.007919 59.795934-15.985082l109.228836 63.186151c20.955285 12.022837 28.031455 38.668733 15.916521 59.600482-12.02386 20.909236-38.795623 28.112296-59.670067 15.927777L581.209849 432.397443z" p-id="9703" fill="#ffffff"></path><path d="M624.344295 325.64194c-20.874444 12.046373-47.623695 4.957923-59.670067-15.973826-12.056606-20.931749-5.037741-47.772074 15.951313-59.749885l109.2053-63.023445c21.023847-12.115957 47.704536-4.924154 59.762165 16.007595 12.148703 20.909236 4.924154 47.612438-16.031131 59.773421L624.344295 325.64194z" p-id="9704" fill="#ffffff"></path><path d="M439.415284 590.55469c20.822255 12.126191 27.945497 38.840649 15.961546 59.670067-12.068885 20.976775-38.778227 28.132762-59.663928 16.099693l-109.246232-63.094053c-20.955285-12.126191-28.036571-38.818136-16.053644-59.703837 12.034093-20.955285 38.823253-28.077504 59.720209-15.962569L439.415284 590.55469z" p-id="9705" fill="#ffffff"></path><path d="M396.166227 697.332706c20.823279-11.908226 47.732165-4.878106 59.727373 16.030108 12.00544 20.773137 4.878106 47.682023-15.991222 59.726349l-109.388472 63.082797c-20.77723 12.092421-47.485548 4.855593-59.509408-16.098669-12.131307-20.828395-4.992716-47.610392 15.927777-59.6803L396.166227 697.332706z" p-id="9706" fill="#ffffff"></path><path d="M467.091651 788.159408c0-24.115258 19.501166-43.730011 43.673729-43.730011 24.15005 0 43.76378 19.614753 43.76378 43.730011l0 126.222899c0 24.091722-19.61373 43.661449-43.76378 43.661449-24.172563 0-43.673729-19.569727-43.673729-43.661449L467.091651 788.159408z" p-id="9707" fill="#ffffff"></path><path d="M581.209849 772.128277c-21.035103-12.067862-28.191091-38.736272-16.123229-59.6803 12.068885-21.000311 38.897954-28.111273 59.795934-15.882751l109.228836 62.991723c20.955285 11.964508 28.031455 38.828369 15.916521 59.736582-12.02386 20.829418-38.795623 28.033501-59.670067 15.9288L581.209849 772.128277z" p-id="9708" fill="#ffffff"></path><path d="M624.344295 665.384031c-20.874444 12.082188-47.623695 4.844336-59.670067-15.984059-12.056606-20.91026-5.037741-47.702489 15.951313-59.681324l109.2053-63.126799c21.023847-12.047396 47.704536-4.763495 59.762165 16.053644 12.148703 20.920493 4.924154 47.601182-16.031131 59.578993L624.344295 665.384031z" p-id="9709" fill="#ffffff"></path></svg>