<?xml version="1.0" standalone="no"?><!DOCTYPE svg PUBLIC "-//W3C//DTD SVG 1.1//EN" "http://www.w3.org/Graphics/SVG/1.1/DTD/svg11.dtd"><svg t="1502030622839" class="icon" style="" viewBox="0 0 1024 1024" version="1.1" xmlns="http://www.w3.org/2000/svg" p-id="9395" xmlns:xlink="http://www.w3.org/1999/xlink" width="200" height="200"><defs><style type="text/css"></style></defs><path d="M851.318953 623.037532l8.24581 17.528229 81.241384 0 5.143142-17.528229L851.318953 623.037532zM832.800162 579.885689l8.244786 18.496278 110.048505 0 3.044339-18.496278L832.800162 579.885689zM814.325374 536.686775l8.23353 18.497301 134.67951 0 2.052754-18.497301L814.325374 536.686775zM796.843193 493.488884l7.195896 18.496278 155.252078 0 0-18.496278L796.843193 493.488884zM778.323379 450.302249l7.194873 18.520837 171.720161 0-2.052754-18.520837L778.323379 450.302249zM759.791285 407.093102l8.234553 18.53107 183.066592 0-4.140301-18.53107L759.791285 407.093102zM221.0098 692.965231l247.823519 0-126.480773-306.422184L221.0098 692.965231zM474.974186 692.965231l247.824543 0-126.492029-306.422184L474.974186 692.965231zM500.696037 64.696552l-11.289125 1.015121-22.614066 1.04889-22.682628 3.085271-11.277869 2.052754-11.347454 2.046614-10.275028 2.065034-11.289125 3.079131-20.572568 6.180776-20.577685 6.163379-20.572568 8.22739L318.678335 108.910588l-19.535958 10.30368-9.27628 5.119606-9.236371 5.143142-9.231254 6.158263-9.294699 5.143142-17.476041 13.376672-8.187481 6.180776-9.28856 6.158263-15.435566 14.390769-15.377238 15.429426-8.23967 7.195896-7.1785 8.23353-7.189757 7.195896-7.254225 8.23353-12.326759 17.470924-13.342903 17.469901-11.323918 18.520837-5.148259 9.247627-5.138026 9.272187-10.286284 19.534935-9.248651 19.534935-7.189757 20.550056-7.1785 20.561312-6.199195 20.583825-5.148259 21.587689-4.088112 22.625323-3.091411 22.624299-1.054006 22.60281-1.002841 22.624299 0 11.323918 1.002841 11.301405 1.054006 23.640443 3.091411 21.634761 2.058894 11.266613 2.029218 11.35871 2.052754 10.275028 3.095504 11.289125 6.199195 20.572568 7.1785 21.587689 7.189757 19.557448 9.248651 20.572568 10.286284 18.473765 5.138026 10.286284 5.148259 9.272187 6.186915 9.248651 5.138026 8.24581 13.342903 17.447388 6.186915 9.272187 6.139843 8.24581 14.443981 16.409755 15.417147 15.440683 7.195896 7.195896 8.181341 7.219432 7.248085 7.17236 8.187481 7.219432 17.476041 13.354159 17.476041 12.339038 18.525954 11.312661 9.236371 5.143142 9.27628 6.158263 19.535958 9.272187 19.516515 9.236371 20.572568 8.23353 20.577685 7.195896 20.572568 5.143142 21.564153 5.142119 22.625323 4.116765 22.682628 3.067875 22.614066 2.075267 22.614066 0 18.485022 0 17.469901-1.026377 17.470924-2.075267 9.28242-1.015121 8.257066-1.026377 17.412596-3.066852 16.490596-4.140301 17.459668-4.105509 16.490596-5.131886 15.429426-6.169519 16.432267-6.158263 15.429426-6.204312 15.41817-7.18464 15.440683-8.22125 14.380536-8.209994 14.368257-9.294699 13.388952-9.248651 13.387928-10.275028 13.330623-10.286284 12.339038-11.277869 12.373831-11.323918 12.340062-12.339038 11.277869-11.323918 11.336197-13.34188 10.297541-13.400208 9.236371-13.354159 10.286284-13.354159 8.222274-14.390769 9.248651-15.441706 7.194873-14.414306 7.173384-15.41817 7.207153-15.417147 6.193055-16.444547-62.721569 0 9.236371 21.598946-96.681043 140.860286-528.490084 0-103.877963-129.558881 228.259932-589.210065 129.57116 308.468799L631.257758 105.825316l118.258499 276.589709 191.288865 0-6.180776-16.443524-6.147006-17.459668-6.192032-16.455803-8.24581-15.41817-7.195896-16.46706-9.225115-15.429426-9.237394-14.391793-9.294699-14.403049-11.277869-14.379513-5.154398-7.195896-5.143142-7.195896-11.336197-13.376672-12.326759-12.339038-12.340062-12.339038-13.376672-12.340062-13.319367-11.323918-13.400208-10.262748-14.380536-10.286284-14.414306-10.286284-15.441706-9.248651-15.429426-8.23353-15.371098-8.228413-16.489573-7.195896-16.422034-7.201013-8.24581-3.079131-8.244786-3.096528-17.470924-5.125746-17.482181-5.148259-17.469901-4.116765-18.53107-3.085271-17.459668-3.085271-18.497301-1.014097-19.557448-2.065034L500.696037 64.697576z" p-id="9396" fill="#ffffff"></path></svg>