<?xml version="1.0" standalone="no"?><!DOCTYPE svg PUBLIC "-//W3C//DTD SVG 1.1//EN" "http://www.w3.org/Graphics/SVG/1.1/DTD/svg11.dtd"><svg t="1502030363294" class="icon" style="" viewBox="0 0 1024 1024" version="1.1" xmlns="http://www.w3.org/2000/svg" p-id="5382" xmlns:xlink="http://www.w3.org/1999/xlink" width="200" height="200"><defs><style type="text/css"></style></defs><path d="M884.492154 759.083421C564.766272 712.916962 262.080485 644.913149 270.954597 567.739489c6.80294-58.437947 227.573065-62.60485 217.135342-93.095282-11.276834-32.464389-327.279928-39.460734-342.128101-94.729501-14.031575-52.578496 188.549284-61.23362 200.877053-88.89461 9.877975-22.463618-123.855866-35.669384-197.33539-40.508599-53.317323 73.5399-84.689844 163.945933-84.689845 261.557065C64.813656 758.99644 265.054213 959.178669 511.933997 959.178669c144.862295 0.001023 296.239981-76.482929 372.558157-200.095248z" p-id="5383" fill="#ffffff"></path><path d="M489.156224 554.184775c-25.049512 6.062066-23.119557 21.686928 4.969175 28.682249 51.330062 14.68956 256.280898 47.241954 446.683389 56.455803 11.81714-40.36636 18.375509-82.919525 18.375509-127.253242 0-246.901273-200.182228-447.2503-447.249277-447.2503-143.17691 0-270.558066 67.356061-352.378559 172.077123 107.563808 2.131547 301.266461 11.337209 315.755454 48.560996 19.957541 51.469232-203.676819 49.92404-193.999413 81.662904 10.900258 35.678594 372.0946 36.464493 388.977106 104.143919 10.202363 40.578184-75.78401 57.741076-181.133384 82.920548z" p-id="5384" fill="#ffffff"></path></svg>