<?xml version="1.0" standalone="no"?><!DOCTYPE svg PUBLIC "-//W3C//DTD SVG 1.1//EN" "http://www.w3.org/Graphics/SVG/1.1/DTD/svg11.dtd"><svg t="1502030573305" class="icon" style="" viewBox="0 0 1024 1024" version="1.1" xmlns="http://www.w3.org/2000/svg" p-id="7950" xmlns:xlink="http://www.w3.org/1999/xlink" width="200" height="200"><defs><style type="text/css"></style></defs><path d="M709.56103 742.277664l67.663052 0c38.812981-0.557702 54.052057-15.520485 63.920822-31.999808 9.547447-16.665565 10.524704-36.59343 10.44591-40.709167 0.010233-0.670266-0.042979-0.844228-0.042979-0.844228L851.547835 298.488185c-0.322341-37.205367-11.957333-51.589982-22.672372-59.624982-10.988262-7.931646-24.02723-8.682753-26.368554-8.629541l0 0-0.505513 0-36.255739 0c-28.587082 0.576121-39.344077 10.68127-47.308469 23.405059-7.591909 13.014408-9.328459 30.297027-9.249665 39.434128 0 1.990331 0.096191 3.589758 0.164752 4.672416 0.070608 1.030469 0.070608 1.308809 0.070608 1.308809l0.138146 0.803295L709.56103 742.277664 709.56103 742.277664zM801.032324 197.4807l-35.285644 0c-38.183647-0.565888-63.851237 18.324344-75.712379 39.905872-12.122085 21.214161-13.493316 43.469024-13.606903 55.6873 0 3.989871 0.261966 7.004531 0.339738 8.505721l0 626.049522c-50.987255 20.306488-106.560968 31.556717-164.771741 31.556717-6.455015 0-12.848633-0.288572-19.24225-0.454348 55.854099-24.14184 91.836615-63.522756 113.480564-102.648868 35.143405-62.7256 36.498262-123.734092 36.577057-125.156488L642.810766 456.613552c0.076748-2.506077-0.053212-4.846378-0.236384-7.179516l0-0.288572c0-37.388539-30.323633-67.746964-67.687612-67.746964L449.0856 381.3985c-12.865006 0-24.856108 3.719718-35.101449 9.92914l0-92.666516c7.860015-98.55155 45.685505-150.186558 89.695858-179.923836 44.262086-29.608342 97.05957-36.236296 132.910079-36.175921l0.174985 0c78.212316 22.716374 147.600663 66.132186 201.812355 124.063597-16.262382-8.402367-30.987758-9.084912-36.07052-9.146311C801.94102 197.4807 801.432437 197.4807 801.032324 197.4807L801.032324 197.4807zM878.281709 255.466346c50.943252 72.637344 80.953753 161.040766 80.953753 256.441557 0 176.098717-101.757568 328.406588-249.674433 401.342738L709.56103 774.987646l67.663052 0c48.742121 0.567935 78.942957-23.468504 92.462878-48.620347 13.94971-25.059745 14.552437-49.65184 14.674211-56.730049 0-0.73985 0-1.26276-0.053212-1.544169L884.307959 298.488185C884.475781 281.885042 882.194832 267.561825 878.281709 255.466346z" p-id="7951" fill="#ffffff"></path><path d="M118.902552 367.082446c-8.16496-16.427134-10.92584-32.978089-11.876492-44.962028-27.075659 57.68684-42.263569 122.003682-42.263569 189.900048 0 67.580165 15.030321 131.540895 41.86141 188.997492L106.623901 580.336388c-0.01842-0.971118-0.106424-2.795673-0.106424-5.372358 0.088004-10.611685 1.057075-34.009582 12.385075-56.882522 10.79588-23.127743 36.132942-45.320185 75.277474-44.804439l15.065114 0 0-61.974493-15.003715 0C155.148058 411.932933 129.777227 389.906268 118.902552 367.082446L118.902552 367.082446zM289.273824 515.165086c-12.104689-8.393157-26.592658-9.188266-29.17139-9.073656l-0.042979 0-0.523933 0-17.529235 0 0 362.357841c22.445198 17.055444 46.52564 31.893384 71.984475 44.512796l0-336.575642C313.597813 538.326599 301.204551 523.663644 289.273824 515.165086L289.273824 515.165086zM564.668035 860.518648c-29.336142 40.453341-75.843362 76.986395-156.439982 86.392626-21.187555-4.962012-41.669028-11.519358-61.477166-19.395746L346.750887 576.386426c0.367367-45.693692-18.016329-74.392314-39.047318-88.329744-20.778232-14.035668-41.424458-14.665001-47.601134-14.778588-0.391926 0-0.820692 0-1.134847 0l-16.960277 0 0-61.974493 16.838503 0 1.328251 0c6.043646 0 26.646893-0.743944 47.502897-14.603603 21.005406-13.747095 39.416731-42.167379 39.074947-87.538729L346.75191 96.483448c51.144844-20.366863 106.84954-31.66928 165.244508-31.66928 8.760524 0 17.45965 0.341784 26.052353 0.795109-17.60803 6.164397-35.422767 14.551414-52.54268 25.913183-52.630684 34.865065-96.52745 98.831936-104.255459 205.191312l-0.025583 0.682545 0 276.711206 0.025583 0.515746c0.034792 0.228197 0.088004 0.797156 0.199545 1.64957 0.785899 36.752042 30.708396 66.325591 67.636446 66.325591l125.800147 0c12.910031 0 24.935925-3.729951 35.215036-10.050913l0 97.529267c0 0-0.061398 2.90005-0.679475 8.840342C607.323531 759.861134 598.407464 813.494659 564.668035 860.518648L564.668035 860.518648zM139.393235 264.644379c19.97596-30.008454 43.433208-57.399291 69.852928-81.71407l0 195.557908-15.003715 0c-27.616988-0.453325-37.896098-11.520381-46.053895-26.175149-7.676843-14.83794-9.030677-33.842783-8.908904-41.782615 0-2.515287 0.086981-3.475148 0.086981-3.475148l0.026606-0.629333L139.393235 264.644379 139.393235 264.644379zM259.710508 378.550639l0.462534 0c2.568499 0.112564 17.066701-0.688685 29.187763-8.961092 11.842723-8.436136 24.201192-22.995737 24.628934-60.429301L313.989739 111.096261c-25.458835 12.506848-49.539276 27.396977-71.984475 44.453445l0 223.000933L259.360538 378.550639 259.710508 378.550639 259.710508 378.550639zM148.204925 532.695345c8.192589-14.96176 18.498306-26.037003 45.976124-26.603915l15.065114 0 0 334.965981c-26.418696-24.315802-49.876967-51.80897-69.913303-81.702813L139.33286 579.251683l0-0.686638c0 0-0.053212-1.02433-0.053212-3.601015C139.156852 567.094806 140.528082 547.752272 148.204925 532.695345z" p-id="7952" fill="#ffffff"></path></svg>