<?xml version="1.0" standalone="no"?><!DOCTYPE svg PUBLIC "-//W3C//DTD SVG 1.1//EN" "http://www.w3.org/Graphics/SVG/1.1/DTD/svg11.dtd"><svg t="1502032337889" class="icon" style="" viewBox="0 0 1024 1024" version="1.1" xmlns="http://www.w3.org/2000/svg" p-id="10544" xmlns:xlink="http://www.w3.org/1999/xlink" width="200" height="200"><defs><style type="text/css"></style></defs><path d="M951.659927 496.53682c-46.142923-78.379115-157.457148-133.624347-287.49583-133.624347-47.25935 0-92.038206 7.287987-132.106784 20.379143 62.367443 9.645684 110.12105 63.581084 110.12105 128.626519 0 118.389364-138.9087 214.314087-310.266439 214.314087-53.425793 0-103.780645-9.356089-147.662061-25.822109 88.346117 108.61679 200.13618 197.398836 327.671854 258.640642 195.23966-93.730755 353.571734-251.945149 447.379237-447.074292C956.804087 506.812861 954.236612 501.650281 951.659927 496.53682zM487.351112 639.836527c-58.583257-11.17962-103.216803-61.426001-105.7106-122.591059-0.072655-1.697665-0.116657-3.454682-0.116657-5.327332 0-118.369921 138.913816-214.314087 310.253136-214.314087 53.489238 0 103.818507 9.364275 147.739832 25.822109C751.174799 214.876905 639.399063 126.162398 511.92274 64.949244 316.797691 158.642137 158.501432 316.76955 64.696999 511.75236c40.791032 85.424578 157.311839 147.102313 294.687626 147.102313C404.997476 658.855696 448.326307 652.062989 487.351112 639.836527z" p-id="10545" fill="#ffffff"></path></svg>