<?xml version="1.0" standalone="no"?><!DOCTYPE svg PUBLIC "-//W3C//DTD SVG 1.1//EN" "http://www.w3.org/Graphics/SVG/1.1/DTD/svg11.dtd"><svg t="1502030601236" class="icon" style="" viewBox="0 0 1024 1024" version="1.1" xmlns="http://www.w3.org/2000/svg" p-id="8825" xmlns:xlink="http://www.w3.org/1999/xlink" width="200" height="200"><defs><style type="text/css"></style></defs><path d="M510.581186 489.472937c-81.956593-82.782402-259.214716-52.535517-395.922285 67.540256-12.597923 11.06501-32.344662 28.79379-49.961902 46.442752l3.248997 2.558265 1.24741-1.112334c140.115178-123.085316 306.935578-169.07679 372.625696-102.719476 65.689095 66.35629 5.361101 219.911572-134.746914 342.981539-22.470781 19.74674-45.616944 37.491892-68.938092 53.122895l119.344109 0c18.467607-12.344143 36.538171-26.188452 53.965076-41.494043C548.143687 736.709855 592.537779 572.239989 510.581186 489.472937zM693.216783 749.005902c2.955308 0.857531 12.788258 2.238994 13.440104-6.545066 8.331759-111.138216 38.141692-153.166425 48.794309-168.964226 10.651594-15.791661-2.415003-18.412348-8.903787-15.171538-73.728188 36.944424-119.757524 30.29498-136.136563 27.308973-9.468652-1.731434-19.763113-5.298679-20.889773 11.088546-4.805446 69.279876-29.644157 126.45404-61.559031 171.60231-5.298679 7.92653 2.62171 12.549827 9.364275 9.038864C615.994004 734.175125 690.626795 748.242516 693.216783 749.005902zM543.076274 277.305747c-19.246343 4.415566-67.650773 12.209066-122.641201-11.160177-8.149611-3.462868-13.972223-4.288676-15.823384 10.024308-1.746784 13.488199-19.944238 89.565898-85.34783 146.549727-3.796466 3.192715-2.104941 6.878664 2.192945 5.877871 45.299719-15.647375 124.214023-16.379039 170.95865 9.372461 3.613294 1.477654 10.301623 2.51017 11.056823-4.956895 2.533706-22.478967 13.375635-89.581248 56.101739-140.353608C573.124637 276.567943 564.451094 272.389784 543.076274 277.305747zM262.224772 784.828782c38.4845-115.508757 93.15668-173.36649 106.158808-185.931666 13.011338-12.565177 3.542686-16.426111-4.098341-13.550621-81.06734 30.643927-131.37819 11.453866-142.618185 5.607718-11.238972-5.862521-18.022469-2.1295-19.555381 4.033873-19.59529 79.081103-77.016071 138.146337-120.361275 173.047218-12.319583 8.142447-5.170766 18.824741 6.330172 15.196097 80.71737-22.487154 122.252345-3.892657 152.904459 7.79964C247.514745 793.525861 258.873444 794.884812 262.224772 784.828782zM266.800997 299.967886C401.808854 172.783205 566.182528 121.438816 633.944841 185.269587c60.439534 56.936757 23.63121 186.233542-80.787978 303.734676 16.822131 23.535019 25.933649 51.54291 27.871791 82.107019 12.771885-9.928117 25.27464-20.60427 37.412075-32.042787 132.196835-124.524085 170.362063-290.462394 85.2455-370.639458-85.11861-80.168878-261.271562-44.210921-393.468396 80.320327-14.639418 13.790074-39.293935 39.326681-60.629869 63.402005l3.074012 2.080382C259.357468 307.386856 264.933463 301.731042 266.800997 299.967886zM923.931399 499.355005c-44.092217-49.493228-121.228015-63.750953-205.940372-45.815465-5.671163 9.103332-11.755742 18.165732-18.24555 27.149337 67.373457-14.552437 124.205836-6.39464 154.810878 27.959795 61.907978 69.501934-6.871501 219.879849-153.618727 335.88798-25.807782 20.382213-52.297087 38.356586-78.772065 53.750181L751.263827 898.286834c18.10945-10.977006 35.942607-23.320125 53.257971-36.998659C947.703825 748.115626 1001.168504 586.060763 923.931399 499.355005z" p-id="8826" fill="#ffffff"></path></svg>