<?xml version="1.0" standalone="no"?><!DOCTYPE svg PUBLIC "-//W3C//DTD SVG 1.1//EN" "http://www.w3.org/Graphics/SVG/1.1/DTD/svg11.dtd"><svg t="1502030486430" class="icon" style="" viewBox="0 0 1024 1024" version="1.1" xmlns="http://www.w3.org/2000/svg" p-id="5959" xmlns:xlink="http://www.w3.org/1999/xlink" width="200" height="200"><defs><style type="text/css"></style></defs><path d="M64.81468 658.071843v212.042348c0 48.91813 40.210817 89.215928 89.264023 89.215927h436.82895L177.237145 545.629935 64.81468 658.071843zM334.004585 576.990177l382.233518 382.339941H870.008278c48.88743 0 89.177042-40.297798 89.177042-89.215927v-23.711028L512.038374 399.24803 334.004585 576.990177zM795.680433 557.995567l163.503864 163.454746v-91.311659l-118.110001-117.973902-45.393863 45.830815zM870.007255 64.669882H154.078703c-49.053206 0-89.264023 40.309054-89.264023 89.37147v379.243417l81.480756-81.567737c17.130146-17.062608 44.908816-17.062608 62.46568 0l62.854537 62.884212 208.906937-209.451336c8.29799-8.27957 19.576871-12.821003 31.514761-12.821003 11.860119 0 22.662139 4.541433 30.941709 12.821003l190.320627 190.446494 76.841086-77.016071c8.201799-8.618285 19.663852-13.334703 30.932499-13.334704 11.783371 0 23.158443 4.716418 31.4462 13.334704l86.662778 86.759992v-351.301018c0.002047-49.061392-40.286542-89.369424-89.174995-89.369423z" p-id="5960" fill="#ffffff"></path></svg>