<?xml version="1.0" standalone="no"?><!DOCTYPE svg PUBLIC "-//W3C//DTD SVG 1.1//EN" "http://www.w3.org/Graphics/SVG/1.1/DTD/svg11.dtd"><svg t="1502030492221" class="icon" style="" viewBox="0 0 1024 1024" version="1.1" xmlns="http://www.w3.org/2000/svg" p-id="6108" xmlns:xlink="http://www.w3.org/1999/xlink" width="200" height="200"><defs><style type="text/css"></style></defs><path d="M550.89945 319.006498c91.920526-160.327522 246.947322-234.288001 345.149925-164.550707a145.186683 145.186683 0 0 1 11.699459 9.261944c-5.53404-7.417947-11.455913-14.543228-17.844413-21.320584C759.090073 3.457752 494.491743 56.263421 300.810578 259.774465 156.016845 412.062893 90.843496 606.710059 121.930515 753.290485l365.659027-161.02644c-9.757225-82.115206 11.096732-182.094268 63.309908-273.257547zM907.553383 572.137659C815.622624 732.475414 660.606061 806.406217 562.394249 736.698598c-21.572318-15.300474-38.650275-36.300764-51.18373-61.455677L151.643234 833.590346c9.752108 17.368576 21.417799 33.475416 35.111682 48.018643C317.58666 1020.527922 582.179874 967.752951 775.866155 764.222465c57.513902-60.493769 102.45444-127.668705 133.803425-195.871039-0.708128 1.261737-1.397836 2.533706-2.116197 3.786233zM617.771487 524.58462l164.482145 58.582233 56.970526-169.113629-164.482145-58.591443-56.970526 169.122839z" p-id="6109" fill="#ffffff"></path></svg>