<?xml version="1.0" standalone="no"?><!DOCTYPE svg PUBLIC "-//W3C//DTD SVG 1.1//EN" "http://www.w3.org/Graphics/SVG/1.1/DTD/svg11.dtd"><svg t="1502030530830" class="icon" style="" viewBox="0 0 1024 1024" version="1.1" xmlns="http://www.w3.org/2000/svg" p-id="6707" xmlns:xlink="http://www.w3.org/1999/xlink" width="200" height="200"><defs><style type="text/css"></style></defs><path d="M147.824255 583.820746c-18.640546-18.009166-48.287773-17.486256-66.292845 1.158383-17.994839 18.636452-17.482163 48.284703 1.158383 66.274426l305.237913 294.762327c18.640546 17.999956 48.287773 17.48728 66.292845-1.158383s17.482163-48.292889-1.158383-66.292845L147.824255 583.820746z" p-id="6708" fill="#ffffff"></path><path d="M636.317888 77.981049c-18.635429-17.998933-48.28368-17.477047-66.292845 1.158383-17.989723 18.645662-17.477047 48.292889 1.158383 66.282612l305.244053 294.762327c18.635429 17.999956 48.28368 17.47807 66.282612-1.158383 18.010189-18.644639 17.486256-48.292889-1.159406-66.292845L636.317888 77.981049z" p-id="6709" fill="#ffffff"></path><path d="M550.108434 320.577273c18.635429 18.009166 48.292889 17.48728 66.282612-1.158383 18.009166-18.635429 17.496489-48.28368-1.149173-66.273403L437.368744 81.380472c-18.631336-17.999956-48.278563-17.477047-66.287729 1.158383-17.999956 18.635429-17.47807 48.28368 1.162476 66.282612L550.108434 320.577273z" p-id="6710" fill="#ffffff"></path><path d="M766.985904 399.666562c-18.643616-17.998933-48.301076-17.486256-66.302055 1.158383-17.989723 18.635429-17.48728 48.28368 1.158383 66.283636l177.889503 171.774225c18.645662 17.989723 48.292889 17.48728 66.282612-1.158383 17.999956-18.635429 17.486256-48.284703-1.159406-66.292845L766.985904 399.666562z" p-id="6711" fill="#ffffff"></path><path d="M452.407252 421.748487c18.640546 17.998933 48.287773 17.477047 66.296939-1.158383 17.989723-18.645662 17.477047-48.292889-1.158383-66.283636L339.667561 182.551686c-18.631336-17.999956-48.278563-17.48728-66.282612 1.158383-18.004049 18.635429-17.482163 48.273447 1.158383 66.282612L452.407252 421.748487z" p-id="6712" fill="#ffffff"></path><path d="M669.279604 500.82959c-18.645662-17.999956-48.292889-17.47807-66.283636 1.158383-17.998933 18.644639-17.486256 48.292889 1.149173 66.283636l177.878247 171.774225c18.645662 17.998933 48.303122 17.486256 66.282612-1.149173 18.010189-18.645662 17.488303-48.292889-1.157359-66.292845L669.279604 500.82959z" p-id="6713" fill="#ffffff"></path><path d="M354.709139 522.910491c18.640546 18.009166 48.288796 17.48728 66.283636-1.158383 18.004049-18.635429 17.482163-48.28368-1.149173-66.282612L241.970472 283.71369c-18.631336-17.998933-48.28368-17.477047-66.283636 1.149173-18.004049 18.645662-17.486256 48.292889 1.158383 66.292845L354.709139 522.910491z" p-id="6714" fill="#ffffff"></path><path d="M571.581492 602.000803c-18.635429-17.999956-48.292889-17.47807-66.291822 1.158383-17.998933 18.635429-17.486256 48.292889 1.158383 66.282612l177.887456 171.765015c18.636452 17.999956 48.285726 17.48728 66.284659-1.14815 17.997909-18.635429 17.486256-48.292889-1.159406-66.292845L571.581492 602.000803z" p-id="6715" fill="#ffffff"></path><path d="M257.007957 624.081705c18.640546 17.999956 48.292889 17.47807 66.297962-1.158383 17.990746-18.644639 17.482163-48.291866-1.158383-66.282612L144.268266 384.876718c-18.626219-17.999956-48.279586-17.47807-66.283636 1.158383-18.004049 18.644639-17.482163 48.28368 1.158383 66.282612L257.007957 624.081705z" p-id="6716" fill="#ffffff"></path><path d="M473.885426 703.163831c-18.644639-17.999956-48.292889-17.47807-66.287729 1.157359-18.004049 18.645662-17.482163 48.292889 1.149173 66.283636l177.883363 171.783435c18.644639 17.989723 48.292889 17.477047 66.282612-1.158383 17.999956-18.645662 17.48728-48.292889-1.158383-66.292845L473.885426 703.163831z" p-id="6717" fill="#ffffff"></path></svg>