<?xml version="1.0" standalone="no"?><!DOCTYPE svg PUBLIC "-//W3C//DTD SVG 1.1//EN" "http://www.w3.org/Graphics/SVG/1.1/DTD/svg11.dtd"><svg t="1502030607013" class="icon" style="" viewBox="0 0 1024 1024" version="1.1" xmlns="http://www.w3.org/2000/svg" p-id="8977" xmlns:xlink="http://www.w3.org/1999/xlink" width="200" height="200"><defs><style type="text/css"></style></defs><path d="M418.607448 379.287419c-83.784218-165.129898-295.773354-139.878794-342.311273 0.63445 0 0-6.466272 45.561685-11.562337 92.982718L64.696999 760.840438l136.163169 127.662565 0.027629-351.4627C200.886775 537.040303 215.669456 369.029798 418.607448 379.287419L418.607448 379.287419zM218.871381 647.353734c0 0 223.515656 30.769794 231.224222-197.528795-3.569292-214.362182 271.966135-228.565672 346.836333-74.42813 0 0-195.256032 2.576685-215.815277 164.191526 0 0 2.583848 199.451588-151.560858 219.964784C429.553755 759.552096 262.557346 788.455379 218.871381 647.353734L218.871381 647.353734zM605.373109 644.721791c83.793428 165.120688 291.946188 137.947815 338.464665-2.575662 0 0 14.148231-32.169677 15.417131-91.051739l0.046049-287.935851L823.149041 135.496997l-0.046049 351.463724C823.102992 486.960721 808.337707 654.979412 605.373109 644.721791L605.373109 644.721791z" p-id="8978" fill="#ffffff"></path></svg>