<?xml version="1.0" standalone="no"?><!DOCTYPE svg PUBLIC "-//W3C//DTD SVG 1.1//EN" "http://www.w3.org/Graphics/SVG/1.1/DTD/svg11.dtd"><svg t="1502030422240" class="icon" style="" viewBox="0 0 1024 1024" version="1.1" xmlns="http://www.w3.org/2000/svg" p-id="5661" xmlns:xlink="http://www.w3.org/1999/xlink" width="200" height="200"><defs><style type="text/css"></style></defs><path d="M662.173766 341.964372a295.305703 295.305703 0 0 0-65.173348 7.274684l14.105252 14.237259-99.106182 99.996458-99.114368-99.996458 99.114368-99.997482 61.715597 62.274322a321.524854 321.524854 0 0 1 88.580455-12.411681c51.958372 0 101.105722 12.376888 144.724149 34.32476C789.970384 198.515263 664.40048 82.702584 511.999488 82.702584c-164.03496 0-297.011554 134.163629-297.011554 299.66601 0 82.607416 33.154098 157.361981 86.738503 211.565487l58.85955-59.381436 99.105158 99.996459-99.105158 99.996458-99.114369-99.996458 20.289092-20.474311c-55.042617-55.669904-90.467431-131.1152-94.703919-214.735689-74.082252 54.491055-122.242112 142.713352-122.242111 242.292302 0 165.501358 132.976594 299.667034 297.011554 299.667034 136.976698 0 252.213255-93.586468 286.521642-220.816175L563.180148 634.54808l99.114368-99.996458 99.106182 99.996458-84.58956 85.347831c-19.704784 80.990592-69.261457 150.279678-136.207171 195.225333 37.111223 16.812921 78.257342 26.176173 121.569799 26.176172 164.033937 0 297.010531-134.164652 297.010531-299.667033 0-165.502381-132.976594-299.66601-297.010531-299.666011z" p-id="5662" fill="#ffffff"></path></svg>