<?xml version="1.0" standalone="no"?><!DOCTYPE svg PUBLIC "-//W3C//DTD SVG 1.1//EN" "http://www.w3.org/Graphics/SVG/1.1/DTD/svg11.dtd"><svg t="1502030566699" class="icon" style="" viewBox="0 0 1024 1024" version="1.1" xmlns="http://www.w3.org/2000/svg" p-id="7793" xmlns:xlink="http://www.w3.org/1999/xlink" width="200" height="200"><defs><style type="text/css"></style></defs><path d="M511.999488 494.499417c156.952658 0 284.192597 104.025215 284.192597 232.343719 0 128.317481-127.239939 232.342696-284.192597 232.342696-156.955728 0-284.192597-104.025215-284.192597-232.342696C227.806891 598.524632 355.04376 494.499417 511.999488 494.499417z" p-id="7794" fill="#ffffff"></path><path d="M511.999488 64.815191c23.87578 0 43.22957 63.791885 43.22957 142.487202 0 78.69634-19.35379 142.488225-43.22957 142.488225s-43.22957-63.791885-43.22957-142.488225C468.769918 128.607076 488.123708 64.815191 511.999488 64.815191z" p-id="7795" fill="#ffffff"></path><path d="M246.842433 241.398956c11.941983-20.74958 76.721359-5.665023 144.683217 33.68724 67.962881 39.352263 113.38028 88.067778 101.43011 108.817358-11.933797 20.741393-76.713172 5.656837-144.67503-33.695427S234.900449 262.140349 246.842433 241.398956z" p-id="7796" fill="#ffffff"></path><path d="M783.335267 241.398956c-11.95017-20.74958-76.721359-5.665023-144.68424 33.68724-67.971068 39.352263-113.379257 88.067778-101.437274 108.817358 11.941983 20.741393 76.721359 5.656837 144.683217-33.695427C749.859851 310.855864 795.269064 262.140349 783.335267 241.398956z" p-id="7797" fill="#ffffff"></path><path d="M726.228641 499.216859c-6.888897 16.096607-55.261605 10.799974-108.073414-11.819187-52.79646-22.626323-90.0182-54.020334-83.137489-70.109778 6.881734-16.096607 55.269791-10.799974 108.066251 11.828396C695.888636 451.742615 733.110375 483.128439 726.228641 499.216859z" p-id="7798" fill="#ffffff"></path><path d="M291.59059 499.216859c6.885827 16.096607 55.269791 10.799974 108.070344-11.819187 52.800553-22.626323 90.022293-54.020334 83.141582-70.109778-6.888897-16.096607-55.265698-10.799974-108.066251 11.828396C321.931618 451.742615 284.709879 483.128439 291.59059 499.216859z" p-id="7799" fill="#ffffff"></path></svg>