<?xml version="1.0" standalone="no"?><!DOCTYPE svg PUBLIC "-//W3C//DTD SVG 1.1//EN" "http://www.w3.org/Graphics/SVG/1.1/DTD/svg11.dtd"><svg t="1502030241828" class="icon" style="" viewBox="0 0 1024 1024" version="1.1" xmlns="http://www.w3.org/2000/svg" p-id="5232" xmlns:xlink="http://www.w3.org/1999/xlink" width="200" height="200"><defs><style type="text/css"></style></defs><path d="M440.197162 177.920202c-30.144554 60.672848-17.805528 135.24731 28.667923 184.201256l33.908275-17.657149c-82.635045-70.653153-35.462676-210.590276 71.614037-219.312938 103.084797-8.400321 171.791621 111.023606 112.131847 195.657169-26.066679 36.990472-79.316463 63.720254-125.002992 50.743708l-30.668487 28.668946c36.264948 16.426111 75.360362 14.216793 110.149703-0.061398-1.641383 6.321986-2.968611 12.784164-3.815909 19.437701-0.899486 7.04751-1.502213 14.243399-1.450025 21.351284h0.044002c0.314155 61.248969 36.736693 118.253264 92.031043 144.580886 17.603937 8.374738 71.41347 29.376051 84.764546 6.531763 9.841136-16.826224-6.854105-26.423813-20.86112-27.532053-16.645099-1.300622-32.494065-4.498454-47.696302-11.631921-53.319369-25.034163-82.241073-85.812411-68.120471-142.922107 15.866363-64.149019 82.127486-105.356536 146.712433-91.725075 60.960397 12.861936 114.105804 80.031754 96.736205 144.013975l28.878724 30.466895c35.960003-81.560574-21.36868-179.790806-101.679797-205.901487-36.142152-11.761881-73.369008-9.42158-106.316397 3.335979 0.331551-1.239224 0.811482-2.444679 1.10824-3.693112C764.98841 186.94167 686.948009 88.283696 584.5959 88.283696c-60.654428 0-117.441782 35.374672-144.398738 89.636506zM583.652412 846.078775c30.135344-60.663638 17.797341-135.24731-28.668947-184.201256l-33.908274 17.657148c82.635045 70.653153 35.453467 210.590276-71.614038 219.312938-103.08582 8.40953-171.791621-111.022583-112.141056-195.657168 2.794649-3.964288 6.033413-7.728008 9.404184-11.422144 0.916882-1.003863 1.868557-1.964748 2.759857-2.986007 28.353768-29.070082 73.378218-47.547923 112.848161-36.335557l30.659277-28.668946c-36.046984-16.32992-74.888618-14.224979-109.521393-0.174986a157.384493 157.384493 0 0 0 3.344165-17.875112c0.908696-7.04751 1.511423-14.242376 1.458211-21.359471h-0.042979c-0.323365-61.239759-36.745902-118.253264-92.039229-144.572699-17.603937-8.383948-71.40426-29.384237-84.764546-6.531764-9.841136 16.827247 6.864338 26.423813 20.87033 27.523867 16.634866 1.309832 32.484855 4.505617 47.688116 11.640108 53.319369 25.035186 82.241073 85.812411 68.121493 142.922107-15.858176 64.147996-82.119299 105.355513-146.712433 91.725074-60.960397-12.862959-114.097618-80.032778-96.737228-144.023184l-28.877701-30.466896c-35.960003 81.56876 21.376866 179.790806 101.679797 205.909674 35.907815 11.68411 72.898287 9.474792 105.688088-3.064802-0.183172 0.707105-0.462534 1.387603-0.62831 2.104941-23.655769 99.522668 54.384631 198.180642 156.73674 198.180641 60.654428 0.001023 117.432573-35.374672 144.397715-89.636506z" p-id="5233" fill="#ffffff"></path><path d="M796.827559 424.208515c-41.72224 0-81.874729 15.892969-112.935142 45.338604l17.673521 33.890878c70.706365-82.573647 210.737632-35.43607 219.471551 71.561849 8.40953 103.007025-111.110587 171.660638-195.797362 112.054075-37.026288-26.057469-63.772442-79.264275-50.78771-124.917034l-28.685319-30.640857c-13.902638 30.746258-14.836917 62.568011-6.698562 92.021833-17.263176-6.40999-35.924187-9.91993-55.46729-9.763365v0.034793c-61.291948 0.323365-118.341269 36.72032-144.679123 91.978854-8.382924 17.587564-29.401634 71.352071-6.540973 84.703147 16.836457 9.832949 26.441209-6.863315 27.542286-20.852933 1.309832-16.634866 4.514827-32.467459 11.649318-47.660486 25.071002-53.319369 85.971024-82.232886 143.150304-68.03349 64.130599 15.926738 105.303324 82.056877 91.671862 146.564054-12.879332 60.934814-80.083943 114.009613-144.127561 96.667643l-30.484292 28.860305c86.310761 38.003546 188.715059-27.306926 209.471802-113.774253 6.356778-26.502607 5.291516-52.927443-1.37123-77.517491 18.040888 7.325849 37.304627 11.456936 56.942897 11.456936 115.109668 0 194.654328-123.240859 146.468886-227.993644-26.021653-56.595996-84.110653-93.979418-146.467863-93.979418zM637.182582 419.597497c0.506537-3.955078-0.184195 1.459235 0 0zM227.170394 601.10848c41.723264 0 81.874729-15.891945 112.936166-45.338604l-17.665335-33.880645c-70.706365 82.572624-210.746842 35.435047-219.478714-71.562872-8.40953-103.015212 111.110587-171.660638 195.805548-112.053052 37.016055 26.057469 63.764256 79.263252 50.7785 124.917034l28.69453 30.641881c14.120602-31.227212 14.923898-63.581084 6.374174-93.41967 17.316387 6.453992 36.021401 9.990538 55.634088 9.83295v-0.034793c61.283762-0.323365 118.341269-36.72032 144.6781-91.969644 8.382924-17.59575 29.401634-71.360258 6.531764-84.712357-16.835434-9.824763-26.441209 6.863315-27.541263 20.862143-1.309832 16.625656-4.505617 32.458249-11.649318 47.6523-25.061792 53.319369-85.961814 82.231863-143.150304 68.033489-64.122413-15.919575-105.304348-82.057901-91.663676-146.565077 12.871145-60.934814 80.084966-114.009613 144.118352-96.667643l30.485314-28.860305c-86.301552-38.003546-188.706873 27.306926-209.463615 113.774253-6.487761 27.02654-5.221932 53.966099 1.808182 78.975703-18.127869-7.396457-37.487799-11.586896-57.232493-11.586896-115.100458 0-194.653305 123.239835-146.467862 227.993644 26.030863 56.585763 84.118839 93.968162 146.467862 93.968161zM386.815371 605.728708c-0.069585 0.558725-0.078795 0.602727-0.104377 0.838088 0.086981-0.672312 0.192382-1.537006 0.104377-0.838088zM386.710994 606.566796c-0.069585 0.533143-0.078795 0.610914 0 0z" p-id="5234" fill="#ffffff"></path></svg>