<?xml version="1.0" standalone="no"?><!DOCTYPE svg PUBLIC "-//W3C//DTD SVG 1.1//EN" "http://www.w3.org/Graphics/SVG/1.1/DTD/svg11.dtd"><svg t="1502030508093" class="icon" style="" viewBox="0 0 1024 1024" version="1.1" xmlns="http://www.w3.org/2000/svg" p-id="6257" xmlns:xlink="http://www.w3.org/1999/xlink" width="200" height="200"><defs><style type="text/css"></style></defs><path d="M310.352909 632.955816s76.888158 98.311073 240.041028 22.688745c0 0-151.497413 3.054569-183.783747-115.319445-20.630876-75.618235 41.253566-130.332371 41.253566-130.332371l262.559905-274.238898h-155.655106l-331.950298 347.856569 127.534652 149.3454zM497.886049 716.149587S381.613906 744.498238 312.223512 676.439166L147.183665 477.937207l332.889693-342.184383h-78.766948L64.81468 483.609393 220.330616 663.207817s73.140811 139.901307 277.555433 52.94177zM713.646068 391.035998s-76.888158-98.308003-240.050238-22.685676c0 0 151.498436-3.049452 183.792956 115.324562 20.621667 75.621305-41.261753 130.331347-41.261752 130.331348L353.575316 888.246153h155.655106l331.942111-347.856569-127.526465-149.353586zM803.667338 360.79116s-73.139787-139.900284-277.562597-52.936653c0 0 116.28033-28.357861 185.670723 39.702234l165.030637 198.505029-332.881506 342.184383h78.767971l336.490708-347.856569L803.667338 360.79116zM513.322623 421.435355l-92.765777 93.51279 92.765777 93.513814 92.765777-93.513814z" p-id="6258" fill="#ffffff"></path></svg>