<?xml version="1.0" standalone="no"?><!DOCTYPE svg PUBLIC "-//W3C//DTD SVG 1.1//EN" "http://www.w3.org/Graphics/SVG/1.1/DTD/svg11.dtd"><svg t="1502030542314" class="icon" style="" viewBox="0 0 1024 1024" version="1.1" xmlns="http://www.w3.org/2000/svg" p-id="7020" xmlns:xlink="http://www.w3.org/1999/xlink" width="200" height="200"><defs><style type="text/css"></style></defs><path d="M500.273423 623.511723c-102.011348-70.862931-238.641145-120.590496-410.730549-88.290859 3.13541 143.375431 76.342736 268.926916 185.862082 342.438163C286.723745 855.897398 361.287975 720.063733 500.273423 623.511723z" p-id="7021" fill="#ffffff"></path><path d="M519.632329 635.509988c-138.984425 96.55201-213.552747 232.385675-224.867444 254.146281 385.255341 220.699518 650.452305-136.435369 635.630738-342.438163C758.281661 514.919493 621.643678 564.647057 519.632329 635.509988z" p-id="7022" fill="#ffffff"></path><path d="M523.24767 405.02357c102.059444 71.03587 238.850923 120.953769 411.208433 88.605014-2.928702-143.631258-76.201519-269.453918-185.887664-343.073636C737.242486 172.341137 662.513504 308.447001 523.24767 405.02357z" p-id="7023" fill="#ffffff"></path><path d="M503.434415 386.208039c139.26481-96.576569 245.834988-240.984516 225.320769-254.476809C445.679014-44.744064 100.435968 148.005892 93.153098 474.203162 264.990768 506.45368 401.472186 456.914404 503.434415 386.208039z" p-id="7024" fill="#ffffff"></path></svg>