<?xml version="1.0" standalone="no"?><!DOCTYPE svg PUBLIC "-//W3C//DTD SVG 1.1//EN" "http://www.w3.org/Graphics/SVG/1.1/DTD/svg11.dtd"><svg t="1502030513446" class="icon" style="" viewBox="0 0 1024 1024" version="1.1" xmlns="http://www.w3.org/2000/svg" p-id="6406" xmlns:xlink="http://www.w3.org/1999/xlink" width="200" height="200"><defs><style type="text/css"></style></defs><path d="M564.416302 384.088772l-151.97939 43.500746 100.363825 92.926436 152.190191-50.771337-100.574626-85.655845zM535.858896 596.214007c-151.645792 0-274.578636-63.663972-274.578636-142.208862 0-30.833239 19.002796-59.34869 51.189869-82.645279l-69.170382-58.931181C134.916271 357.989347 64.81468 430.419983 64.81468 512.00307c0 137.89358 200.218044 249.668293 447.185832 249.668293 80.189344 0 155.387-11.83249 220.46518-32.473599L574.693366 594.773192a530.645662 530.645662 0 0 1-38.83447 1.440815zM512.000512 262.328637c-19.882839 0-39.417755 0.796132-58.60884 2.204202l55.866379 47.944965a533.472034 533.472034 0 0 1 26.601868-0.673335c151.636582 0 274.569426 63.663972 274.569426 142.201699 0 28.875654-16.666588 55.723116-45.211715 78.159104l128.297015 110.11184c41.630143-37.925774 65.669652-82.529645 65.669652-130.274042 0-137.892557-200.211904-249.674433-447.183785-249.674433z" fill="#ffffff" p-id="6407"></path></svg>