<?xml version="1.0" standalone="no"?><!DOCTYPE svg PUBLIC "-//W3C//DTD SVG 1.1//EN" "http://www.w3.org/Graphics/SVG/1.1/DTD/svg11.dtd"><svg t="1502030459425" class="icon" style="" viewBox="0 0 1024 1024" version="1.1" xmlns="http://www.w3.org/2000/svg" p-id="5810" xmlns:xlink="http://www.w3.org/1999/xlink" width="200" height="200"><defs><style type="text/css"></style></defs><path d="M220.010321 668.449191c49.860595 0 94.349855-23.923876 122.784464-60.957326v2.665712h97.292884c26.677593 0 48.393173-21.884426 48.393173-48.781006 0-22.404266-15.06716-41.319058-35.605939-47.002501 20.538779-5.683443 35.605939-24.603351 35.605939-46.99636 0-26.90272-21.715581-48.787146-48.393173-48.787146h-95.668897c-28.344558-38.21537-73.586972-63.040778-124.408451-63.040779-85.506443 0-155.196665 70.252017-155.196665 156.367327 0.001023 86.197174 69.690222 156.532079 155.196665 156.532079z m200.886263-186.092325c19.020192 6.108115 31.819706 17.054421 31.819706 29.363771 0 12.382005-12.799514 23.326265-31.819706 29.43438v-58.798151z m-34.168194-5.006014c7.073092 0 13.806447 0.595564 20.199041 1.697665v65.415872c-6.392594 1.102101-13.125949 1.692548-20.199041 1.692549v-68.806086z m-13.968129 0.76441v67.282382c-5.721305-0.595564-11.111059-1.609661-16.156982-2.968611v-61.141522c4.722558-1.27197 9.746992-2.227738 15.047718-2.833535l-0.045026-0.195451c0.38681-0.045025 0.763386-0.103354 1.15429-0.143263z m-30.126135 59.508325c-4.298909-1.954515-8.085142-4.15974-11.195993-6.621814-7.070023-5.513574-11.106965-12.046361-11.106966-19.084661 0-7.04137 4.036943-13.495362 11.106966-19.001773 3.110851-2.468215 6.897084-4.673439 11.195993-6.628977v51.337225z m-71.959915-120.986515c3.703345-2.549056 8.16189-4.071735 13.037944-4.15974 6.736425-0.163729 12.801561 1.358951 17.010419 6.878665 4.285606-5.519714 10.350742-7.042393 16.996093-6.878665 5.218862 0.088004 9.851369 1.784646 13.718443 4.584412 11.357675 8.227382 15.572674 26.128077 5.38566 41.232077l-5.38566 8.145517-30.715559 45.477774 30.715559 45.556569 5.38566 8.143471c10.187013 15.107069 5.972015 33.011858-5.38566 41.2331-3.867074 2.799766-8.500605 4.498454-13.718443 4.584411-6.64535 0.169869-12.71151-1.358951-16.996093-6.877641-4.208858 5.51869-10.273994 7.04751-17.010419 6.877641-4.877077-0.086981-9.334599-1.609661-13.037944-4.159739-11.862165-7.974625-16.413831-26.301016-6.063089-41.657772l6.063089-9.07775 30.048363-44.621266-30.048363-44.538379-6.063089-9.084913c-10.350742-15.356756-5.8001-33.683147 6.063089-41.657772z m-38.293141 95.28004c0-1.784646 0.166799-3.569292 0.50756-5.266957-18.851347-6.441713-41.48688-18.576077-51.256385-33.344432-2.020006-3.133364-0.255827-8.727779 4.378728-8.56405 2.436492 0.086981 4.708232 2.210341 4.708231 4.668323 0.090051 0.763386-0.248663 1.609661 0.50756 2.629897 9.092076 12.299117 27.688619 23.414269 43.344181 29.440519 3.952009-8.65717 12.7023-14.761192 22.802332-14.761192 4.888334 0 9.514701 1.441838 13.300934 3.898797 7.071046 4.503571 11.779278 12.304234 11.779278 21.300119 0 8.990768-4.708232 16.879436-11.779278 21.378913-3.786233 2.454912-8.4126 3.90289-13.300934 3.902889-10.100032 0-18.850323-6.109138-22.802332-14.850219-15.655562 6.109138-34.253128 17.223267-43.344181 29.523407-0.756223 1.01512-0.417509 1.87265-0.50756 2.631944 0 2.461051-2.27174 4.579295-4.708231 4.667299-4.634554 0.168846-6.398734-5.426593-4.378728-8.570189 9.769504-14.761192 32.405037-26.89658 51.256385-33.432437a26.742061 26.742061 0 0 1-0.50756-5.252631zM572.556703 606.763271c9.930163-3.303232 18.516726-8.822946 23.647582-16.454764 1.173732 12.305257 9.42772 19.937075 24.745591 19.937074 16.578584 0 24.240077-14.254655 24.240077-24.943088v-75.513858c0-28.245298-37.286208-41.144072-72.63325-40.297798-31.221072 0.763386-60.928674 12.221346-62.194505 33.261545-1.177825 22.229281 20.705578 21.627577 27.600615 14.679327 7.828292-7.976672 22.307052-14.258749 34.594913-15.617699 11.781324-1.266853 21.627577 2.122337 21.627576 12.981663 0.081864 7.892761-9.082866 10.775414-21.627576 12.81691-28.278043 4.41045-74.14979 3.814886-73.052806 42.591027-0.001023 36.143175 42.835597 46.657646 73.051783 36.559661z m0-53.614082c7.494695-1.784646 15.57472-3.989871 21.627576-9.759271v15.360849c0 13.997805-10.780531 21.459754-21.627576 22.905686-10.852162 1.52268-21.633716-2.886747-21.633717-12.472056 0-11.541871 10.184967-13.323447 21.633717-16.035208zM716.384435 585.302493v-52.094472c0-31.30089 38.965453-31.30089 38.965454 0v52.094472c0 33.168424 51.930743 33.168424 51.930743 0v-63.460334c0-55.917544-70.196759-70.416769-94.848205-26.051329-4.121877-35.712363-48.901757-33.250288-48.901757 0v89.511663c0 33.514301 52.853765 32.836873 52.853765 0zM876.540042 585.302493v-16.966417l12.796444-11.796674 21.962197 40.135093c13.214976 24.095791 44.102451 12.894681 47.885614-7.55507v-8.309246c-0.670266-3.568269-2.178619-7.386224-4.794189-11.20725l-30.717606-44.538379 20.962428-19.0908c23.472598-21.296025-10.694573-54.639434-31.401174-31.902594l-36.694737 40.223096V446.502263c0-37.59013-50.910507-36.82572-50.910507 0v138.80023c0.001023 32.836873 50.91153 33.514301 50.91153 0z" p-id="5811" fill="#ffffff"></path></svg>