<?xml version="1.0" standalone="no"?><!DOCTYPE svg PUBLIC "-//W3C//DTD SVG 1.1//EN" "http://www.w3.org/Graphics/SVG/1.1/DTD/svg11.dtd"><svg t="1502030611599" class="icon" style="" viewBox="0 0 1024 1024" version="1.1" xmlns="http://www.w3.org/2000/svg" p-id="9129" xmlns:xlink="http://www.w3.org/1999/xlink" width="200" height="200"><defs><style type="text/css"></style></defs><path d="M775.930623 668.270113c44.471864-3.328815 89.834005-25.712615 121.706923-47.856961L897.637546 344.600409 653.727397 100.44569 308.728922 100.44569 64.696999 344.600409l0 328.278675c0 11.507078 3.861958 20.786419 11.157107 28.447912 7.392364 7.705496 186.089255 195.58656 202.785519 213.331713 8.273431 8.92016 18.33867 10.034541 27.643594 8.072863 3.538593-0.698918 6.649444-2.778276 10.729365-6.203282 17.674545-14.543228 36.790928-24.035416 58.790988-33.725102 27.433816-12.345166 76.945463-28.490891 124.501572-28.03245 51.757804 0.580215 106.303095 24.095791 141.102668 39.46892 44.524053 19.578917 84.522022 29.260417 134.52281 29.260417 51.391461 0 100.361779-27.976168 140.901077-52.055586 24.969695-14.913665 36.975123-26.542516 42.470277-31.924083L959.301977 638.114303c0-4.809539-5.250584-9.881045-11.768021-4.526083-7.653307 6.133697-18.182105 13.778818-30.544667 21.039175-40.845267 24.000624-89.589434 52.18657-141.05969 52.18657-50.000787 0-98.185206-8.610098-138.629337-25.713638-40.34794-17.146519-81.56876-30.121018-136.996141-30.121018-47.556109 0-100.623745 16.281825-124.501572 28.107151-13.665231 6.670933-37.036521 18.282389-37.132712 18.282389L338.669838 344.600409l281.304827 0L619.974665 635.68088c5.870708 2.184759 11.759835 4.3951 17.325597 6.876618C677.586804 659.94347 726.103798 672.049183 775.930623 668.270113z" p-id="9130" fill="#ffffff"></path></svg>