<?xml version="1.0" standalone="no"?><!DOCTYPE svg PUBLIC "-//W3C//DTD SVG 1.1//EN" "http://www.w3.org/Graphics/SVG/1.1/DTD/svg11.dtd"><svg t="1502030592312" class="icon" style="" viewBox="0 0 1024 1024" version="1.1" xmlns="http://www.w3.org/2000/svg" p-id="8559" xmlns:xlink="http://www.w3.org/1999/xlink" width="200" height="200"><defs><style type="text/css"></style></defs><path d="M587.09686 648.51621c168.856779-55.30049 174.663018 8.990768 310.322721-68.139913 111.950721-85.256756 30.831192-254.175957 30.831192-254.175957s-25.024953 52.273551-184.350658 89.916892C569.660746 476.439086 603.94969 587.117838 587.09686 648.51621zM758.105652 661.329027c-49.378617 2.964518-91.062995 2.470261-159.01769 23.198352l-41.058115 43.537586c-20.788465 20.974707-55.079456 21.248953-76.18617 0.618077l-176.886663-172.775019c-21.125133-20.629853-21.406542-54.663994-0.626263-75.629491l174.019359-175.624926c20.789489-20.966521 55.070246-21.248953 76.18617-0.608867l110.36255 107.785865c22.642696-12.768815 39.275515-17.515932 70.486354-28.315906 140.010801-40.73168 160.376641-64.626903 167.259398-91.716888C825.909921 153.780409 679.537226 60.157101 512.163217 60.157101c-246.455111 0-447.466218 202.970738-447.466218 451.842899 0 248.873184 201.01213 451.842899 447.466218 451.842899 184.369078 0 343.289554-113.582895 411.666874-274.992051 8.80555-20.771069 20.913309-36.962843 35.471886-117.932969C903.913483 642.904399 825.786101 657.260361 758.105652 661.329027z" p-id="8560" fill="#ffffff"></path></svg>