<?xml version="1.0" standalone="no"?><!DOCTYPE svg PUBLIC "-//W3C//DTD SVG 1.1//EN" "http://www.w3.org/Graphics/SVG/1.1/DTD/svg11.dtd"><svg t="1502030548447" class="icon" style="" viewBox="0 0 1024 1024" version="1.1" xmlns="http://www.w3.org/2000/svg" p-id="7175" xmlns:xlink="http://www.w3.org/1999/xlink" width="200" height="200"><defs><style type="text/css"></style></defs><path d="M320.328098 608.728018l78.519308-242.087641c-0.777713 0.034792-1.573845 0.052189-2.351558 0.086981-6.808056 0.305969-13.502525 0.681522-20.171412 1.074472-4.326539 0.25378-8.617261 0.533143-12.882402 0.821715-6.231935 0.427742-12.437264 0.865717-18.529005 1.364067-4.789073 0.39295-9.456373 0.856507-14.158465 1.293459-9.1678 0.856507-18.161638 1.809205-26.980491 2.831488-5.375427 0.629333-10.776438 1.24127-16.011672 1.932002-4.91187 0.64673-9.67536 1.354857-14.464433 2.045589-4.771677 0.698918-9.500375 1.416256-14.141068 2.167363-4.64888 0.751107-9.263991 1.512447-13.791098 2.307555-4.807493 0.856507-9.473769 1.755993-14.123672 2.665713-4.02057 0.786922-8.128121 1.538029-12.025894 2.359744-7.673773 1.626034-15.093766 3.339048-22.286586 5.113461-3.662413 0.908696-7.122211 1.870604-10.653641 2.814092-4.151553 1.110287-8.259104 2.237971-12.218276 3.391237-3.52222 1.031493-6.957459 2.089591-10.339486 3.164063-3.828188 1.215688-7.525394 2.473331-11.169387 3.741207-3.015683 1.057075-6.091742 2.097778-8.975419 3.181459-5.856381 2.211365-11.467169 4.483104-16.737196 6.834662-2.228761 0.9967-4.212952 2.045589-6.336312 3.067872-3.329838 1.599428-6.615675 3.216251-9.67536 4.877077-2.228761 1.206478-4.317329 2.447748-6.39771 3.687996-2.700505 1.607614-5.26184 3.251044-7.708566 4.92108-1.782599 1.214664-3.601015 2.429329-5.252631 3.670599-2.945075 2.228761-5.602601 4.50971-8.084119 6.817266-0.708128 0.654916-1.572822 1.293459-2.246157 1.957585l-0.446162 0.427742c-10.348696 10.435677-15.994276 21.649066-15.994276 33.604352C64.69393 529.963117 168.236144 579.291592 320.328098 608.728018z" p-id="7176" fill="#ffffff"></path><path d="M410.760736 357.777523l-0.017396 0.034792c46.811142-2.045589 96.610338-2.115174 148.465356 0.25378 160.185282 7.29822 302.20074 35.449373 389.975852 72.865541L620.492458 101.802594c-27.505447-24.716938-62.237483-36.987403-96.864118-36.987403-6.154163 0-12.271488 0.856507-18.380626 1.63422l-94.443999 291.328112C410.803715 357.777523 410.768923 357.777523 410.760736 357.777523z" p-id="7177" fill="#ffffff"></path><path d="M92.005972 427.225221c1.64343-1.240247 3.460822-2.446725 5.252631-3.670599 2.438539-1.669012 4.998851-3.304256 7.699356-4.92108 2.080382-1.24127 4.168949-2.473331 6.40692-3.687996 3.058662-1.660826 6.336312-3.26844 9.67536-4.877077 2.12336-1.022283 4.099365-2.071172 6.328126-3.067872 5.270027-2.351558 10.880815-4.615111 16.745383-6.826476 2.87549-1.091868 5.951549-2.12336 8.975419-3.180436 3.645017-1.267876 7.333012-2.526543 11.169387-3.749394 3.373841-1.075495 6.808056-2.124384 10.331299-3.154853 3.967358-1.162476 8.075933-2.28095 12.218276-3.391237 3.53143-0.943488 6.992251-1.905396 10.653641-2.814092 7.192819-1.782599 14.613836-3.487428 22.286586-5.113461 3.906983-0.829901 8.006348-1.582031 12.025894-2.367931 4.65809-0.908696 9.31618-1.809205 14.132882-2.656503 4.51892-0.804319 9.133008-1.564635 13.782911-2.316765 4.649903-0.751107 9.378601-1.459235 14.150278-2.158153 4.780887-0.699941 9.544377-1.39886 14.455223-2.045589 5.244444-0.690732 10.636245-1.310855 16.011672-1.932002 8.818853-1.031493 17.811668-1.974981 26.980491-2.831488 4.702092-0.446162 9.369392-0.900509 14.158465-1.293459 6.091742-0.50756 12.30628-0.935302 18.529005-1.364067 4.273327-0.296759 8.555863-0.567935 12.891611-0.830925 6.668886-0.39295 13.363356-0.760317 20.163225-1.074472 0.804319-0.034792 1.573845-0.086981 2.368954-0.122797l94.496188-291.328112c-1.328251 0.165776-2.665713 0.148379-3.993964 0.348947-3.01466 0.471744-6.004761 1.153266-9.002025 1.809205-4.938476 1.083681-9.82374 2.421142-14.647605 4.02057-2.980891 0.98749-5.934153 2.018983-8.853645 3.197832-5.01727 2.045589-9.885138 4.492314-14.683421 7.115048-2.421142 1.320065-4.903683 2.481518-7.254218 3.949962-7.027044 4.387937-13.8351 9.263991-20.198018 14.980179L82.130044 435.545724c0.523933-0.50756 1.24127-0.9967 1.791809-1.503237C86.404394 431.734932 89.051687 429.453982 92.005972 427.225221z" p-id="7178" fill="#ffffff"></path><path d="M703.670879 417.297105l-78.555124 242.166435c154.531516-6.773264 275.055496-36.105313 317.566706-77.899184l0.811482-0.821715c-0.077771 0.034792-0.192382 0.077771-0.323365 0.112564 10.541077-10.399861 16.135492-21.701255 16.135492-33.534767C959.305047 496.113171 855.718831 446.811302 703.670879 417.297105z" p-id="7179" fill="#ffffff"></path><path d="M613.667006 666.585751c-46.786583 2.045589-96.560196 2.115174-148.378375-0.261966C305.04195 659.104359 163.070494 630.891807 75.208401 593.510432l328.700277 329.129043c32.43369 29.025057 74.700329 40.500413 115.245767 35.353183L613.667006 666.585751z" p-id="7180" fill="#ffffff"></path><path d="M625.090173 667.346067l-94.643544 291.834648c28.560476-3.547803 56.084343-15.57472 78.736249-35.929304l333.735967-334.13608C900.695185 631.005394 779.996219 660.572804 625.090173 667.346067z" p-id="7181" fill="#ffffff"></path></svg>